<?xml version="1.0" encoding="UTF-8" standalone="no"?>
<!DOCTYPE svg PUBLIC "-//W3C//DTD SVG 1.1//EN" "http://www.w3.org/Graphics/SVG/1.1/DTD/svg11.dtd">
<svg width="100%" height="100%" viewBox="0 0 942 203" version="1.1" xmlns="http://www.w3.org/2000/svg" xmlns:xlink="http://www.w3.org/1999/xlink" xml:space="preserve" xmlns:serif="http://www.serif.com/" style="fill-rule:evenodd;clip-rule:evenodd;stroke-linejoin:round;stroke-miterlimit:2;">
    <g id="Layout_SCHRIFT_2_" transform="matrix(1,0,0,1,-189,-535)">
        <g>
            <path d="M443.9,692.7C441.6,693.4 439.3,693.9 436.9,694.3C434.6,694.7 432,694.8 429.1,694.8C423.8,694.8 419.3,693.8 415.6,691.8C411.9,689.8 408.9,686.9 406.6,683C404.3,679.1 402.6,674.3 401.6,668.7C400.8,663 400.3,656.5 400.3,649.2C400.3,642 400.8,635.6 401.9,629.8C403,624 404.7,619.1 407,615C409.3,610.9 412.4,607.8 416.2,605.6C419.9,603.3 424.4,602.2 429.7,602.2C432.8,602.2 435.4,602.4 437.4,602.7C439.4,603 441.3,603.4 443.1,604C443.5,604.1 443.8,604.5 443.8,605.2L443.3,613.9C443.3,614.1 443.2,614.3 443,614.5C442.8,614.7 442.6,614.7 442.2,614.6C440.4,614.1 438.8,613.7 437.2,613.5C435.6,613.3 433.8,613.2 431.6,613.2C428,613.2 425,613.9 422.6,615.4C420.2,616.9 418.3,619.1 416.8,622.1C415.3,625.1 414.3,628.9 413.8,633.4C413.2,637.9 412.9,643.2 412.9,649.3C412.9,655.1 413.2,660.2 413.8,664.6C414.4,668.9 415.4,672.5 416.8,675.4C418.2,678.3 420.1,680.4 422.5,681.9C424.9,683.4 427.9,684.1 431.7,684.1C433.7,684.1 435.6,683.9 437.3,683.6C439,683.3 440.7,682.9 442.3,682.5C442.6,682.2 442.9,682.2 443.3,682.2C443.7,682.2 443.9,682.5 443.9,682.9L444.4,691.1C444.5,692.1 444.3,692.6 443.9,692.7Z" style="fill:rgb(20,20,18);fill-rule:nonzero;"/>
            <path d="M496.1,604.7C496.1,603.8 496.5,603.4 497.4,603.4L506.7,603.4C507.6,603.4 508,603.8 508,604.7L508,692.2C508,693.1 507.6,693.5 506.7,693.5L497.4,693.5C496.5,693.5 496.1,693.1 496.1,692.2L496.1,652.9C496.1,652.4 495.8,652.1 495.3,652.1L469.8,652.1C469.3,652.1 469,652.4 469,652.9L469,692.3C469,693.2 468.6,693.6 467.7,693.6L458.4,693.6C457.5,693.6 457.1,693.2 457.1,692.3L457.1,604.7C457.1,603.8 457.5,603.4 458.4,603.4L467.7,603.4C468.6,603.4 469,603.8 469,604.7L469,641.2C469,641.7 469.3,642 469.8,642L495.3,642C495.8,642 496.1,641.7 496.1,641.2L496.1,604.7Z" style="fill:rgb(20,20,18);fill-rule:nonzero;"/>
            <path d="M525.8,604.7C525.8,603.8 526.2,603.4 527.1,603.4L562.5,603.4C563.4,603.4 563.8,603.8 563.8,604.7L563.8,612.8C563.8,613.7 563.4,614.1 562.5,614.1L538.2,614.1C537.7,614.1 537.4,614.4 537.4,614.9L537.4,641.2C537.4,641.7 537.7,642 538.2,642L560.9,642C561.8,642 562.2,642.4 562.2,643.3L562.2,650.6C562.2,651.5 561.8,651.9 560.9,651.9L538.2,651.9C537.7,651.9 537.4,652.2 537.4,652.7L537.4,681.7C537.4,682.2 537.7,682.5 538.2,682.5L564.2,682.5C565,682.5 565.4,682.9 565.4,683.8L565.4,692.2C565.4,693.1 565,693.5 564.2,693.5L527.1,693.5C526.2,693.5 525.8,693.1 525.8,692.2L525.8,604.7Z" style="fill:rgb(20,20,18);fill-rule:nonzero;"/>
            <path d="M619.4,692.7C617.1,693.4 614.8,693.9 612.4,694.3C610.1,694.7 607.5,694.8 604.6,694.8C599.3,694.8 594.8,693.8 591.1,691.8C587.4,689.8 584.4,686.9 582.1,683C579.8,679.1 578.1,674.3 577.1,668.7C576.1,663 575.6,656.5 575.6,649.2C575.6,642 576.1,635.6 577.2,629.8C578.3,624 580,619.1 582.3,615C584.6,610.9 587.7,607.8 591.5,605.6C595.3,603.4 599.8,602.3 605.1,602.3C608.2,602.3 610.8,602.5 612.8,602.8C614.8,603.1 616.7,603.5 618.5,604.1C618.9,604.2 619.2,604.6 619.2,605.3L618.7,614.1C618.7,614.3 618.6,614.5 618.4,614.7C618.2,614.9 618,614.9 617.6,614.8C615.8,614.3 614.2,613.9 612.6,613.7C611,613.5 609.2,613.4 607,613.4C603.4,613.4 600.4,614.1 598,615.6C595.6,617.1 593.7,619.3 592.2,622.3C590.7,625.3 589.7,629.1 589.1,633.6C588.5,638.1 588.2,643.4 588.2,649.5C588.2,655.3 588.5,660.4 589.1,664.8C589.7,669.1 590.7,672.7 592.1,675.6C593.5,678.5 595.4,680.6 597.8,682.1C600.2,683.6 603.2,684.3 607,684.3C609,684.3 610.9,684.1 612.6,683.8C614.3,683.5 616,683.1 617.6,682.7C618,682.6 618.3,682.6 618.7,682.6C619.1,682.6 619.3,682.9 619.3,683.3L619.8,691.5C619.9,692.1 619.7,692.6 619.4,692.7Z" style="fill:rgb(20,20,18);fill-rule:nonzero;"/>
            <path d="M643.3,693.6L633.8,693.6C632.9,693.6 632.5,693.2 632.5,692.3L632.5,604.7C632.5,603.8 632.9,603.4 633.8,603.4L643.3,603.4C644,603.4 644.4,603.8 644.4,604.7L644.4,641.2C644.4,641.8 644.8,642.1 645.6,642.1C646.3,642.1 646.9,641.8 647.3,641.2L668,604.7C668.2,604.3 668.4,604 668.7,603.8C669,603.5 669.4,603.4 670,603.4L680.9,603.4C681.8,603.4 682.1,603.8 681.8,604.7L658.7,643C658.3,643.7 658,644.3 657.8,644.7C657.7,645.1 657.6,645.6 657.6,646C657.6,646.5 657.7,647 657.9,647.4C658.1,647.8 658.3,648.4 658.7,649.1C659.6,650.7 660.7,652.7 662.1,655C663.5,657.3 665,659.9 666.5,662.6C668.1,665.3 669.7,668.1 671.4,671C673.1,673.9 674.7,676.6 676.2,679.3C677.7,682 679.1,684.4 680.3,686.7C681.5,689 682.5,690.8 683.2,692.2C683.4,692.6 683.4,693 683.1,693.2C682.9,693.4 682.5,693.5 682.1,693.5L671.1,693.5C670.5,693.5 670,693.4 669.8,693.1C669.5,692.8 669.3,692.6 669.1,692.3C668,690.4 666.6,687.7 664.9,684.5C663.2,681.2 661.3,677.8 659.3,674.1C657.3,670.4 655.2,666.8 653.1,663.1C651,659.4 649.1,656.2 647.5,653.4C647.1,652.7 646.9,652.3 646.6,652.1C646.4,651.9 646,651.8 645.5,651.8C645,651.8 644.6,651.9 644.5,652C644.4,652.1 644.3,652.4 644.3,652.7L644.3,692.2C644.3,693.1 644,693.6 643.3,693.6Z" style="fill:rgb(20,20,18);fill-rule:nonzero;"/>
            <path d="M914.7,604.4C914.7,603.5 915.1,603.1 916,603.1L951.4,603.1C952.3,603.1 952.7,603.5 952.7,604.4L952.7,612.5C952.7,613.4 952.3,613.8 951.4,613.8L927.6,613.8C927.1,613.8 926.8,614.1 926.8,614.6L926.8,643.6C926.8,644.1 927.1,644.4 927.6,644.4L950,644.4C950.9,644.4 951.3,644.8 951.3,645.7L951.3,653.1C951.3,654 950.9,654.4 950,654.4L927.6,654.4C927.1,654.4 926.8,654.7 926.8,655.2L926.8,691.8C926.8,692.7 926.4,693.1 925.5,693.1L916.1,693.1C915.2,693.1 914.8,692.7 914.8,691.8L914.8,604.4L914.7,604.4Z" style="fill:rgb(20,20,18);fill-rule:nonzero;"/>
            <path d="M997.3,669.9C997.2,669.3 996.9,669 996.2,669L973,669C972.3,669 971.9,669.3 971.8,669.9C971.5,671.1 971.2,672.6 970.7,674.6C970.3,676.6 969.8,678.7 969.4,680.8C969,683 968.5,685.1 968.1,687.1C967.7,689.1 967.4,690.7 967.1,691.9C966.8,692.8 966.3,693.2 965.5,693.2L955.7,693.2C954.8,693.2 954.5,692.8 954.6,691.9C955.1,689.2 955.9,685.7 957,681.2C958.1,676.7 959.2,671.7 960.4,666.3C961.6,660.9 963,655.2 964.4,649.2C965.8,643.2 967.2,637.4 968.5,631.8C969.8,626.2 971.1,621 972.2,616.2C973.3,611.4 974.3,607.5 975.1,604.4C975.4,603.5 975.9,603.1 976.8,603.1L993.5,603.1C994.4,603.1 994.9,603.5 995.1,604.4C995.9,607.7 996.9,611.8 998,616.9C999.1,621.9 1000.4,627.4 1001.7,633.2C1003,639 1004.4,645 1005.7,651.1C1007.1,657.2 1008.4,662.9 1009.5,668.3C1010.7,673.7 1011.8,678.5 1012.7,682.7C1013.6,686.9 1014.3,690 1014.6,691.9C1014.9,692.8 1014.6,693.2 1013.7,693.2L1003.3,693.2C1002.9,693.2 1002.5,693.1 1002.4,693C1002.2,692.9 1002,692.5 1001.9,691.9C1001.7,690.8 1001.4,689.2 1001,687.1C1000.6,685.1 1000.2,683 999.7,680.8C999.2,678.6 998.8,676.6 998.4,674.6C997.9,672.6 997.6,671.1 997.3,669.9ZM994.7,658.9C995.3,658.9 995.6,658.6 995.6,658C995.2,656.1 994.7,653.4 994,649.7C993.3,646 992.5,642.1 991.6,637.8C990.7,633.6 989.9,629.4 989,625.2C988.2,621 987.4,617.5 986.8,614.6C986.6,614.2 986.4,614 986.3,613.8C986.1,613.6 985.7,613.5 985.1,613.5C983.9,613.5 983.4,613.9 983.4,614.6C982.7,617.4 981.9,620.9 980.9,625C980,629.1 979,633.3 978.1,637.5C977.2,641.7 976.3,645.7 975.5,649.4C974.7,653.1 974.1,655.9 973.8,657.9C973.8,658.5 974.1,658.8 974.7,658.8L994.7,658.9Z" style="fill:rgb(20,20,18);fill-rule:nonzero;"/>
            <path d="M1064.7,692.3C1062.4,693 1060.1,693.5 1057.7,693.9C1055.4,694.3 1052.8,694.4 1049.9,694.4C1044.6,694.4 1040.1,693.4 1036.4,691.4C1032.7,689.4 1029.7,686.5 1027.4,682.6C1025.1,678.7 1023.4,673.9 1022.4,668.3C1021.4,662.6 1020.9,656.1 1020.9,648.8C1020.9,641.6 1021.4,635.2 1022.5,629.4C1023.6,623.6 1025.3,618.7 1027.6,614.6C1029.9,610.5 1033,607.4 1036.8,605.2C1040.6,603 1045.1,601.9 1050.4,601.9C1053.5,601.9 1056.1,602.1 1058.1,602.4C1060.1,602.7 1062,603.1 1063.8,603.7C1064.2,603.8 1064.5,604.2 1064.5,604.9L1064,613.7C1064,613.9 1063.9,614.1 1063.7,614.3C1063.5,614.5 1063.3,614.5 1062.9,614.4C1061.1,613.9 1059.5,613.5 1057.9,613.3C1056.3,613.1 1054.5,613 1052.3,613C1048.7,613 1045.7,613.7 1043.3,615.2C1040.9,616.7 1039,618.9 1037.5,621.9C1036,624.9 1035,628.7 1034.4,633.2C1033.8,637.7 1033.5,643 1033.5,649.1C1033.5,654.9 1033.8,660 1034.4,664.4C1035,668.7 1036,672.3 1037.4,675.2C1038.8,678.1 1040.7,680.2 1043.1,681.7C1045.5,683.2 1048.5,683.9 1052.3,683.9C1054.3,683.9 1056.2,683.7 1057.9,683.4C1059.6,683.1 1061.3,682.7 1062.9,682.3C1063.3,682.2 1063.6,682.2 1064,682.2C1064.4,682.2 1064.6,682.5 1064.6,682.9L1065.1,691.1C1065.2,691.8 1065.1,692.3 1064.7,692.3Z" style="fill:rgb(20,20,18);fill-rule:nonzero;"/>
            <path d="M1086.7,614.4C1086.7,613.9 1086.4,613.6 1085.9,613.6L1072.1,613.6C1071.2,613.6 1070.8,613.2 1070.8,612.3L1070.8,604.5C1070.8,603.6 1071.2,603.2 1072.1,603.2L1113.3,603.2C1114.2,603.2 1114.6,603.6 1114.6,604.5L1114.6,612.3C1114.6,613.2 1114.2,613.6 1113.3,613.6L1099.5,613.6C1099,613.6 1098.7,613.9 1098.7,614.4L1098.7,692C1098.7,692.9 1098.3,693.3 1097.4,693.3L1088.1,693.3C1087.2,693.3 1086.8,692.9 1086.8,692L1086.8,614.4L1086.7,614.4Z" style="fill:rgb(20,20,18);fill-rule:nonzero;"/>
        </g>
        <g>
            <path d="M726.9,614.4C726.9,613.9 726.6,613.6 726.1,613.6L712.3,613.6C711.4,613.6 711,613.2 711,612.3L711,604.5C711,603.6 711.4,603.2 712.3,603.2L753.4,603.2C754.3,603.2 754.7,603.6 754.7,604.5L754.7,612.3C754.7,613.2 754.3,613.6 753.4,613.6L739.6,613.6C739.1,613.6 738.8,613.9 738.8,614.4L738.8,692C738.8,692.9 738.4,693.3 737.5,693.3L728.3,693.3C727.4,693.3 727,692.9 727,692L726.9,614.4Z" style="fill:rgb(20,20,18);fill-rule:nonzero;"/>
            <path d="M804.4,604.4C804.4,603.5 804.8,603.1 805.7,603.1L815,603.1C815.9,603.1 816.3,603.5 816.3,604.4L816.3,691.9C816.3,692.8 815.9,693.2 815,693.2L805.7,693.2C804.8,693.2 804.4,692.8 804.4,691.9L804.4,652.5C804.4,652 804.1,651.7 803.6,651.7L778.1,651.7C777.6,651.7 777.3,652 777.3,652.5L777.3,691.9C777.3,692.8 776.9,693.2 776,693.2L766.7,693.2C765.8,693.2 765.4,692.8 765.4,691.9L765.4,604.4C765.4,603.5 765.8,603.1 766.7,603.1L776,603.1C776.9,603.1 777.3,603.5 777.3,604.4L777.3,640.9C777.3,641.4 777.6,641.7 778.1,641.7L803.6,641.7C804.1,641.7 804.4,641.4 804.4,640.9L804.4,604.4Z" style="fill:rgb(20,20,18);fill-rule:nonzero;"/>
            <path d="M834.1,604.4C834.1,603.5 834.5,603.1 835.4,603.1L870.8,603.1C871.7,603.1 872.1,603.5 872.1,604.4L872.1,612.5C872.1,613.4 871.7,613.8 870.8,613.8L846.5,613.8C846,613.8 845.7,614.1 845.7,614.6L845.7,640.9C845.7,641.4 846,641.7 846.5,641.7L869.3,641.7C870.2,641.7 870.6,642.1 870.6,643L870.6,650.3C870.6,651.2 870.2,651.6 869.3,651.6L846.6,651.6C846.1,651.6 845.8,651.9 845.8,652.4L845.8,681.4C845.8,681.9 846.1,682.2 846.6,682.2L872.6,682.2C873.4,682.2 873.8,682.6 873.8,683.5L873.8,691.9C873.8,692.8 873.4,693.2 872.6,693.2L835.5,693.2C834.6,693.2 834.2,692.8 834.2,691.9L834.1,604.4Z" style="fill:rgb(20,20,18);fill-rule:nonzero;"/>
        </g>
    </g>
    <g transform="matrix(1,0,0,1,-189,-535)">
        <path d="M353.1,713.7L271.7,713.7C271.7,713.7 251.7,729.1 241.3,736.6C241.3,732.3 244.5,713.7 244.5,713.7L230.3,713.7C225.7,713.7 222,710 222,705.4L218.8,584C218.8,579.4 222.5,575.7 227.1,575.7L353.4,585.7C357.9,585.7 361.6,589.4 361.6,594L361.6,705.5C361.5,710 357.8,713.7 353.1,713.7Z" style="fill:rgb(247,204,54);fill-rule:nonzero;"/>
    </g>
    <g transform="matrix(1,0,0,1,-189,-535)">
        <path d="M226.3,729C225,729 223.8,728.7 222.7,728.1C220,726.7 218.3,724 218.3,721C218.3,718.4 219.1,712.3 220.1,706.1L215.4,706.1L215.3,706.1C206.4,706.1 199,698.8 199,689.8L195.8,568.4C195.8,559.4 203.1,552.1 212.1,552L212.8,552L338.9,562C347.7,562.2 354.8,569.5 354.8,578.3L354.8,689.8C354.6,698.9 347.3,706 338.2,706L259.4,706C254.5,709.8 239.5,721.2 230.9,727.4C229.6,728.5 228,729 226.3,729L226.3,729ZM227.2,694.1L234.3,694.1L233.1,701.1C232.4,705.3 231.8,709.2 231.3,712.4C241.2,705 253.1,695.9 253.8,695.4L255.4,694.2L338.2,694.2C340.7,694.2 342.7,692.3 342.8,689.8L342.8,578.3C342.8,575.9 340.9,574 338.5,574L338.1,574L212,564C209.7,564.1 207.8,566 207.7,568.3L210.9,689.7C210.9,692.1 212.9,694 215.2,694L227.2,694L227.2,694.1Z" style="fill:rgb(20,20,18);fill-rule:nonzero;"/>
    </g>
    <g id="Layout_SCHRIFT_3_">
    </g>
    <g id="Layout_SCHRIFT_4_" transform="matrix(1,0,0,1,-189,-535)">
        <g>
            <path d="M443.9,692.7C441.6,693.4 439.3,693.9 436.9,694.3C434.6,694.7 432,694.8 429.1,694.8C423.8,694.8 419.3,693.8 415.6,691.8C411.9,689.8 408.9,686.9 406.6,683C404.3,679.1 402.6,674.3 401.6,668.7C400.8,663 400.3,656.5 400.3,649.2C400.3,642 400.8,635.6 401.9,629.8C403,624 404.7,619.1 407,615C409.3,610.9 412.4,607.8 416.2,605.6C419.9,603.3 424.4,602.2 429.7,602.2C432.8,602.2 435.4,602.4 437.4,602.7C439.4,603 441.3,603.4 443.1,604C443.5,604.1 443.8,604.5 443.8,605.2L443.3,613.9C443.3,614.1 443.2,614.3 443,614.5C442.8,614.7 442.6,614.7 442.2,614.6C440.4,614.1 438.8,613.7 437.2,613.5C435.6,613.3 433.8,613.2 431.6,613.2C428,613.2 425,613.9 422.6,615.4C420.2,616.9 418.3,619.1 416.8,622.1C415.3,625.1 414.3,628.9 413.8,633.4C413.2,637.9 412.9,643.2 412.9,649.3C412.9,655.1 413.2,660.2 413.8,664.6C414.4,668.9 415.4,672.5 416.8,675.4C418.2,678.3 420.1,680.4 422.5,681.9C424.9,683.4 427.9,684.1 431.7,684.1C433.7,684.1 435.6,683.9 437.3,683.6C439,683.3 440.7,682.9 442.3,682.5C442.6,682.2 442.9,682.2 443.3,682.2C443.7,682.2 443.9,682.5 443.9,682.9L444.4,691.1C444.5,692.1 444.3,692.6 443.9,692.7Z" style="fill:rgb(20,20,18);fill-rule:nonzero;"/>
            <path d="M496.1,604.7C496.1,603.8 496.5,603.4 497.4,603.4L506.7,603.4C507.6,603.4 508,603.8 508,604.7L508,692.2C508,693.1 507.6,693.5 506.7,693.5L497.4,693.5C496.5,693.5 496.1,693.1 496.1,692.2L496.1,652.9C496.1,652.4 495.8,652.1 495.3,652.1L469.8,652.1C469.3,652.1 469,652.4 469,652.9L469,692.3C469,693.2 468.6,693.6 467.7,693.6L458.4,693.6C457.5,693.6 457.1,693.2 457.1,692.3L457.1,604.7C457.1,603.8 457.5,603.4 458.4,603.4L467.7,603.4C468.6,603.4 469,603.8 469,604.7L469,641.2C469,641.7 469.3,642 469.8,642L495.3,642C495.8,642 496.1,641.7 496.1,641.2L496.1,604.7Z" style="fill:rgb(20,20,18);fill-rule:nonzero;"/>
            <path d="M525.8,604.7C525.8,603.8 526.2,603.4 527.1,603.4L562.5,603.4C563.4,603.4 563.8,603.8 563.8,604.7L563.8,612.8C563.8,613.7 563.4,614.1 562.5,614.1L538.2,614.1C537.7,614.1 537.4,614.4 537.4,614.9L537.4,641.2C537.4,641.7 537.7,642 538.2,642L560.9,642C561.8,642 562.2,642.4 562.2,643.3L562.2,650.6C562.2,651.5 561.8,651.9 560.9,651.9L538.2,651.9C537.7,651.9 537.4,652.2 537.4,652.7L537.4,681.7C537.4,682.2 537.7,682.5 538.2,682.5L564.2,682.5C565,682.5 565.4,682.9 565.4,683.8L565.4,692.2C565.4,693.1 565,693.5 564.2,693.5L527.1,693.5C526.2,693.5 525.8,693.1 525.8,692.2L525.8,604.7Z" style="fill:rgb(20,20,18);fill-rule:nonzero;"/>
            <path d="M619.4,692.7C617.1,693.4 614.8,693.9 612.4,694.3C610.1,694.7 607.5,694.8 604.6,694.8C599.3,694.8 594.8,693.8 591.1,691.8C587.4,689.8 584.4,686.9 582.1,683C579.8,679.1 578.1,674.3 577.1,668.7C576.1,663 575.6,656.5 575.6,649.2C575.6,642 576.1,635.6 577.2,629.8C578.3,624 580,619.1 582.3,615C584.6,610.9 587.7,607.8 591.5,605.6C595.3,603.4 599.8,602.3 605.1,602.3C608.2,602.3 610.8,602.5 612.8,602.8C614.8,603.1 616.7,603.5 618.5,604.1C618.9,604.2 619.2,604.6 619.2,605.3L618.7,614.1C618.7,614.3 618.6,614.5 618.4,614.7C618.2,614.9 618,614.9 617.6,614.8C615.8,614.3 614.2,613.9 612.6,613.7C611,613.5 609.2,613.4 607,613.4C603.4,613.4 600.4,614.1 598,615.6C595.6,617.1 593.7,619.3 592.2,622.3C590.7,625.3 589.7,629.1 589.1,633.6C588.5,638.1 588.2,643.4 588.2,649.5C588.2,655.3 588.5,660.4 589.1,664.8C589.7,669.1 590.7,672.7 592.1,675.6C593.5,678.5 595.4,680.6 597.8,682.1C600.2,683.6 603.2,684.3 607,684.3C609,684.3 610.9,684.1 612.6,683.8C614.3,683.5 616,683.1 617.6,682.7C618,682.6 618.3,682.6 618.7,682.6C619.1,682.6 619.3,682.9 619.3,683.3L619.8,691.5C619.9,692.1 619.7,692.6 619.4,692.7Z" style="fill:rgb(20,20,18);fill-rule:nonzero;"/>
            <path d="M643.3,693.6L633.8,693.6C632.9,693.6 632.5,693.2 632.5,692.3L632.5,604.7C632.5,603.8 632.9,603.4 633.8,603.4L643.3,603.4C644,603.4 644.4,603.8 644.4,604.7L644.4,641.2C644.4,641.8 644.8,642.1 645.6,642.1C646.3,642.1 646.9,641.8 647.3,641.2L668,604.7C668.2,604.3 668.4,604 668.7,603.8C669,603.5 669.4,603.4 670,603.4L680.9,603.4C681.8,603.4 682.1,603.8 681.8,604.7L658.7,643C658.3,643.7 658,644.3 657.8,644.7C657.7,645.1 657.6,645.6 657.6,646C657.6,646.5 657.7,647 657.9,647.4C658.1,647.8 658.3,648.4 658.7,649.1C659.6,650.7 660.7,652.7 662.1,655C663.5,657.3 665,659.9 666.5,662.6C668.1,665.3 669.7,668.1 671.4,671C673.1,673.9 674.7,676.6 676.2,679.3C677.7,682 679.1,684.4 680.3,686.7C681.5,689 682.5,690.8 683.2,692.2C683.4,692.6 683.4,693 683.1,693.2C682.9,693.4 682.5,693.5 682.1,693.5L671.1,693.5C670.5,693.5 670,693.4 669.8,693.1C669.5,692.8 669.3,692.6 669.1,692.3C668,690.4 666.6,687.7 664.9,684.5C663.2,681.2 661.3,677.8 659.3,674.1C657.3,670.4 655.2,666.8 653.1,663.1C651,659.4 649.1,656.2 647.5,653.4C647.1,652.7 646.9,652.3 646.6,652.1C646.4,651.9 646,651.8 645.5,651.8C645,651.8 644.6,651.9 644.5,652C644.4,652.1 644.3,652.4 644.3,652.7L644.3,692.2C644.3,693.1 644,693.6 643.3,693.6Z" style="fill:rgb(20,20,18);fill-rule:nonzero;"/>
            <path d="M914.7,604.4C914.7,603.5 915.1,603.1 916,603.1L951.4,603.1C952.3,603.1 952.7,603.5 952.7,604.4L952.7,612.5C952.7,613.4 952.3,613.8 951.4,613.8L927.6,613.8C927.1,613.8 926.8,614.1 926.8,614.6L926.8,643.6C926.8,644.1 927.1,644.4 927.6,644.4L950,644.4C950.9,644.4 951.3,644.8 951.3,645.7L951.3,653.1C951.3,654 950.9,654.4 950,654.4L927.6,654.4C927.1,654.4 926.8,654.7 926.8,655.2L926.8,691.8C926.8,692.7 926.4,693.1 925.5,693.1L916.1,693.1C915.2,693.1 914.8,692.7 914.8,691.8L914.8,604.4L914.7,604.4Z" style="fill:rgb(20,20,18);fill-rule:nonzero;"/>
            <path d="M997.3,669.9C997.2,669.3 996.9,669 996.2,669L973,669C972.3,669 971.9,669.3 971.8,669.9C971.5,671.1 971.2,672.6 970.7,674.6C970.3,676.6 969.8,678.7 969.4,680.8C969,683 968.5,685.1 968.1,687.1C967.7,689.1 967.4,690.7 967.1,691.9C966.8,692.8 966.3,693.2 965.5,693.2L955.7,693.2C954.8,693.2 954.5,692.8 954.6,691.9C955.1,689.2 955.9,685.7 957,681.2C958.1,676.7 959.2,671.7 960.4,666.3C961.6,660.9 963,655.2 964.4,649.2C965.8,643.2 967.2,637.4 968.5,631.8C969.8,626.2 971.1,621 972.2,616.2C973.3,611.4 974.3,607.5 975.1,604.4C975.4,603.5 975.9,603.1 976.8,603.1L993.5,603.1C994.4,603.1 994.9,603.5 995.1,604.4C995.9,607.7 996.9,611.8 998,616.9C999.1,621.9 1000.4,627.4 1001.7,633.2C1003,639 1004.4,645 1005.7,651.1C1007.1,657.2 1008.4,662.9 1009.5,668.3C1010.7,673.7 1011.8,678.5 1012.7,682.7C1013.6,686.9 1014.3,690 1014.6,691.9C1014.9,692.8 1014.6,693.2 1013.7,693.2L1003.3,693.2C1002.9,693.2 1002.5,693.1 1002.4,693C1002.2,692.9 1002,692.5 1001.9,691.9C1001.7,690.8 1001.4,689.2 1001,687.1C1000.6,685.1 1000.2,683 999.7,680.8C999.2,678.6 998.8,676.6 998.4,674.6C997.9,672.6 997.6,671.1 997.3,669.9ZM994.7,658.9C995.3,658.9 995.6,658.6 995.6,658C995.2,656.1 994.7,653.4 994,649.7C993.3,646 992.5,642.1 991.6,637.8C990.7,633.6 989.9,629.4 989,625.2C988.2,621 987.4,617.5 986.8,614.6C986.6,614.2 986.4,614 986.3,613.8C986.1,613.6 985.7,613.5 985.1,613.5C983.9,613.5 983.4,613.9 983.4,614.6C982.7,617.4 981.9,620.9 980.9,625C980,629.1 979,633.3 978.1,637.5C977.2,641.7 976.3,645.7 975.5,649.4C974.7,653.1 974.1,655.9 973.8,657.9C973.8,658.5 974.1,658.8 974.7,658.8L994.7,658.9Z" style="fill:rgb(20,20,18);fill-rule:nonzero;"/>
            <path d="M1064.7,692.3C1062.4,693 1060.1,693.5 1057.7,693.9C1055.4,694.3 1052.8,694.4 1049.9,694.4C1044.6,694.4 1040.1,693.4 1036.4,691.4C1032.7,689.4 1029.7,686.5 1027.4,682.6C1025.1,678.7 1023.4,673.9 1022.4,668.3C1021.4,662.6 1020.9,656.1 1020.9,648.8C1020.9,641.6 1021.4,635.2 1022.5,629.4C1023.6,623.6 1025.3,618.7 1027.6,614.6C1029.9,610.5 1033,607.4 1036.8,605.2C1040.6,603 1045.1,601.9 1050.4,601.9C1053.5,601.9 1056.1,602.1 1058.1,602.4C1060.1,602.7 1062,603.1 1063.8,603.7C1064.2,603.8 1064.5,604.2 1064.5,604.9L1064,613.7C1064,613.9 1063.9,614.1 1063.7,614.3C1063.5,614.5 1063.3,614.5 1062.9,614.4C1061.1,613.9 1059.5,613.5 1057.9,613.3C1056.3,613.1 1054.5,613 1052.3,613C1048.7,613 1045.7,613.7 1043.3,615.2C1040.9,616.7 1039,618.9 1037.5,621.9C1036,624.9 1035,628.7 1034.4,633.2C1033.8,637.7 1033.5,643 1033.5,649.1C1033.5,654.9 1033.8,660 1034.4,664.4C1035,668.7 1036,672.3 1037.4,675.2C1038.8,678.1 1040.7,680.2 1043.1,681.7C1045.5,683.2 1048.5,683.9 1052.3,683.9C1054.3,683.9 1056.2,683.7 1057.9,683.4C1059.6,683.1 1061.3,682.7 1062.9,682.3C1063.3,682.2 1063.6,682.2 1064,682.2C1064.4,682.2 1064.6,682.5 1064.6,682.9L1065.1,691.1C1065.2,691.8 1065.1,692.3 1064.7,692.3Z" style="fill:rgb(20,20,18);fill-rule:nonzero;"/>
            <path d="M1086.7,614.4C1086.7,613.9 1086.4,613.6 1085.9,613.6L1072.1,613.6C1071.2,613.6 1070.8,613.2 1070.8,612.3L1070.8,604.5C1070.8,603.6 1071.2,603.2 1072.1,603.2L1113.3,603.2C1114.2,603.2 1114.6,603.6 1114.6,604.5L1114.6,612.3C1114.6,613.2 1114.2,613.6 1113.3,613.6L1099.5,613.6C1099,613.6 1098.7,613.9 1098.7,614.4L1098.7,692C1098.7,692.9 1098.3,693.3 1097.4,693.3L1088.1,693.3C1087.2,693.3 1086.8,692.9 1086.8,692L1086.8,614.4L1086.7,614.4Z" style="fill:rgb(20,20,18);fill-rule:nonzero;"/>
        </g>
        <g>
            <path d="M726.9,614.4C726.9,613.9 726.6,613.6 726.1,613.6L712.3,613.6C711.4,613.6 711,613.2 711,612.3L711,604.5C711,603.6 711.4,603.2 712.3,603.2L753.4,603.2C754.3,603.2 754.7,603.6 754.7,604.5L754.7,612.3C754.7,613.2 754.3,613.6 753.4,613.6L739.6,613.6C739.1,613.6 738.8,613.9 738.8,614.4L738.8,692C738.8,692.9 738.4,693.3 737.5,693.3L728.3,693.3C727.4,693.3 727,692.9 727,692L726.9,614.4Z" style="fill:rgb(20,20,18);fill-rule:nonzero;"/>
            <path d="M804.4,604.4C804.4,603.5 804.8,603.1 805.7,603.1L815,603.1C815.9,603.1 816.3,603.5 816.3,604.4L816.3,691.9C816.3,692.8 815.9,693.2 815,693.2L805.7,693.2C804.8,693.2 804.4,692.8 804.4,691.9L804.4,652.5C804.4,652 804.1,651.7 803.6,651.7L778.1,651.7C777.6,651.7 777.3,652 777.3,652.5L777.3,691.9C777.3,692.8 776.9,693.2 776,693.2L766.7,693.2C765.8,693.2 765.4,692.8 765.4,691.9L765.4,604.4C765.4,603.5 765.8,603.1 766.7,603.1L776,603.1C776.9,603.1 777.3,603.5 777.3,604.4L777.3,640.9C777.3,641.4 777.6,641.7 778.1,641.7L803.6,641.7C804.1,641.7 804.4,641.4 804.4,640.9L804.4,604.4Z" style="fill:rgb(20,20,18);fill-rule:nonzero;"/>
            <path d="M834.1,604.4C834.1,603.5 834.5,603.1 835.4,603.1L870.8,603.1C871.7,603.1 872.1,603.5 872.1,604.4L872.1,612.5C872.1,613.4 871.7,613.8 870.8,613.8L846.5,613.8C846,613.8 845.7,614.1 845.7,614.6L845.7,640.9C845.7,641.4 846,641.7 846.5,641.7L869.3,641.7C870.2,641.7 870.6,642.1 870.6,643L870.6,650.3C870.6,651.2 870.2,651.6 869.3,651.6L846.6,651.6C846.1,651.6 845.8,651.9 845.8,652.4L845.8,681.4C845.8,681.9 846.1,682.2 846.6,682.2L872.6,682.2C873.4,682.2 873.8,682.6 873.8,683.5L873.8,691.9C873.8,692.8 873.4,693.2 872.6,693.2L835.5,693.2C834.6,693.2 834.2,692.8 834.2,691.9L834.1,604.4Z" style="fill:rgb(20,20,18);fill-rule:nonzero;"/>
        </g>
    </g>
    <g transform="matrix(1,0,0,1,-189,-535)">
        <path d="M353.1,713.7L271.7,713.7C271.7,713.7 251.7,729.1 241.3,736.6C241.3,732.3 244.5,713.7 244.5,713.7L230.3,713.7C225.7,713.7 222,710 222,705.4L218.8,584C218.8,579.4 222.5,575.7 227.1,575.7L353.4,585.7C357.9,585.7 361.6,589.4 361.6,594L361.6,705.5C361.5,710 357.8,713.7 353.1,713.7Z" style="fill:rgb(247,204,54);fill-rule:nonzero;"/>
    </g>
    <g transform="matrix(1,0,0,1,-189,-535)">
        <path d="M226.3,729C225,729 223.8,728.7 222.7,728.1C220,726.7 218.3,724 218.3,721C218.3,718.4 219.1,712.3 220.1,706.1L215.4,706.1L215.3,706.1C206.4,706.1 199,698.8 199,689.8L195.8,568.4C195.8,559.4 203.1,552.1 212.1,552L212.8,552L338.9,562C347.7,562.2 354.8,569.5 354.8,578.3L354.8,689.8C354.6,698.9 347.3,706 338.2,706L259.4,706C254.5,709.8 239.5,721.2 230.9,727.4C229.6,728.5 228,729 226.3,729L226.3,729ZM227.2,694.1L234.3,694.1L233.1,701.1C232.4,705.3 231.8,709.2 231.3,712.4C241.2,705 253.1,695.9 253.8,695.4L255.4,694.2L338.2,694.2C340.7,694.2 342.7,692.3 342.8,689.8L342.8,578.3C342.8,575.9 340.9,574 338.5,574L338.1,574L212,564C209.7,564.1 207.8,566 207.7,568.3L210.9,689.7C210.9,692.1 212.9,694 215.2,694L227.2,694L227.2,694.1Z" style="fill:rgb(20,20,18);fill-rule:nonzero;"/>
    </g>
</svg>
