<svg width="1425" height="400" viewBox="0 0 1425 400" fill="none" xmlns="http://www.w3.org/2000/svg">
<path d="M131.32 183.37H139.72L137.18 191.38H128.78L131.32 183.37ZM143.27 172.04L140.56 180.61H132.16L134.83 172.04H131.9L129.23 180.61H122.75V183.37H128.35L125.81 191.38H119.55V194.14H124.98L122.18 203.11H125.15L127.91 194.14H136.35L133.55 203.11H136.48L139.24 194.14H145.8V191.38H140.11L142.65 183.37H148.95V180.61H143.48L146.15 172.04H143.27Z" fill="#2B2B2A"/>
<path d="M653.6 214.34C663.12 214.34 669.95 208.99 669.95 200.14C669.95 192.34 665.56 188.02 657.68 184.98L650.69 182.3C645.34 180.22 642.81 178.06 642.81 173.23C642.81 168.4 647.34 165.13 653.07 165.13C657.9 165.13 661.1 167.29 663.85 170.56L668.24 166.99C665.42 162.98 659.99 159.78 653.3 159.78C644.16 159.78 637.17 165.06 637.17 173.31C637.17 180.52 640.66 184.61 648.84 187.73L656.65 190.7C661.48 192.56 664.31 195.68 664.31 200.29C664.31 205.72 659.55 208.99 653.68 208.99C647.29 208.99 643.05 206.17 640.08 201.48L635.4 204.83C637.77 210.1 644.83 214.34 653.6 214.34ZM598.75 214.34C610.79 214.34 619.12 206.16 619.12 193.01V160.67H613.47V193.15C613.47 203.33 607.6 208.98 598.75 208.98C589.9 208.98 584.03 203.33 584.03 193.15V160.67H578.38V193C578.38 206.16 586.71 214.34 598.75 214.34ZM531.78 183.71V165.94H542.71C549.4 165.94 553.26 168.99 553.26 174.86C553.26 180.73 549.4 183.71 542.71 183.71H531.78V183.71ZM526.13 213.45H531.78V188.92H537.8L558.69 213.45H566.05L545.24 189C553.79 188.33 558.99 182.9 558.99 174.88C558.99 166.26 553.04 160.68 543.38 160.68H526.13V213.45V213.45ZM499.07 213.45H504.72V160.67H499.07V213.45ZM456.92 213.45H461.53L484.2 160.67H477.96L459.23 204.23L440.5 160.67H434.18L456.92 213.45Z" fill="#2B2B2A"/>
<path d="M408.09 214.34C417.61 214.34 424.44 208.99 424.44 200.14C424.44 192.34 420.05 188.02 412.18 184.98L405.19 182.3C399.84 180.22 397.31 178.06 397.31 173.23C397.31 168.4 401.84 165.13 407.57 165.13C412.4 165.13 415.6 167.29 418.35 170.56L422.74 166.99C419.91 162.98 414.49 159.78 407.8 159.78C398.66 159.78 391.67 165.06 391.67 173.31C391.67 180.52 395.16 184.61 403.34 187.73L411.14 190.7C415.97 192.56 418.8 195.68 418.8 200.29C418.8 205.72 414.04 208.99 408.17 208.99C401.78 208.99 397.54 206.17 394.57 201.48L389.89 204.83C392.25 210.1 399.32 214.34 408.09 214.34ZM353.01 213.45H357.62L380.29 160.67H374.05L355.32 204.23L336.59 160.67H330.27L353.01 213.45Z" stroke="#2B2B2A" stroke-width="2" stroke-miterlimit="5.533"/>
<path d="M291.01 181.63V171.52H298.59C302.08 171.52 304.61 173.38 304.61 176.58C304.61 179.63 302.08 181.63 298.59 181.63H291.01ZM279.2 213.45H291.02V191.67H292.95L310.49 213.45H324.69L306.03 190.18C312.72 187.8 316.36 183.42 316.36 176.58C316.36 167.81 309.97 160.67 300.01 160.67H279.2V213.45ZM249.54 213.45H261.36V160.67H249.54V213.45ZM177.96 213.45H188.59L199.15 178.66L209.63 213.45H220.33L236.76 160.67H224.12L214.53 194.34L204.27 160.67H193.86L183.6 194.19L174.01 160.67H161.53L177.96 213.45Z" fill="#2B2B2A"/>
<path d="M659.38 244.23C661.79 244.23 664.29 243.48 665.83 241.92V234.6H659.03V236.28H664.08V241.19C662.91 242.15 661.07 242.55 659.38 242.55C655.06 242.55 652.25 239.54 652.25 235.66C652.25 231.78 655.15 228.77 659.1 228.77C661.2 228.77 662.81 229.49 664.03 230.59L665.18 229.28C663.66 227.85 661.6 227.08 659.1 227.08C654.22 227.08 650.45 230.82 650.45 235.66C650.45 240.5 654.12 244.23 659.38 244.23ZM644.91 243.95V227.36H643.13V240.94L632.54 227.36H630.97V243.95H632.75V230.37L643.34 243.95H644.91ZM618.06 244.23C621.85 244.23 624.46 241.66 624.46 237.52V227.35H622.68V237.56C622.68 240.76 620.83 242.54 618.05 242.54C615.27 242.54 613.42 240.76 613.42 237.56V227.35H611.64V237.52C611.66 241.66 614.28 244.23 618.06 244.23ZM597.01 234.61V229.02H600.44C602.54 229.02 603.76 229.98 603.76 231.82C603.76 233.67 602.54 234.6 600.44 234.6H597.01V234.61ZM595.23 243.95H597.01V236.24H598.9L605.47 243.95H607.78L601.24 236.26C603.93 236.05 605.56 234.34 605.56 231.82C605.56 229.11 603.69 227.36 600.65 227.36H595.23V243.95V243.95ZM580.18 243.95H589.64V242.27H581.95V236.26H588.24V234.58H581.95V229.04H589.64V227.36H580.18V243.95ZM571.68 243.95H573.46V227.36H571.68V243.95ZM559.43 244.23C561.84 244.23 564.34 243.48 565.88 241.92V234.6H559.08V236.28H564.13V241.19C562.96 242.15 561.11 242.55 559.43 242.55C555.11 242.55 552.3 239.54 552.3 235.66C552.3 231.78 555.2 228.77 559.15 228.77C561.25 228.77 562.87 229.49 564.08 230.59L565.22 229.28C563.7 227.85 561.64 227.08 559.14 227.08C554.26 227.08 550.49 230.82 550.49 235.66C550.5 240.5 554.17 244.23 559.43 244.23ZM537.11 243.95H546.57V242.27H538.88V236.26H545.17V234.58H538.88V229.04H546.57V227.36H537.11V243.95ZM522.11 234.61V229.02H525.54C527.64 229.02 528.86 229.98 528.86 231.82C528.86 233.67 527.64 234.6 525.54 234.6H522.11V234.61ZM520.33 243.95H522.11V236.24H524L530.57 243.95H532.88L526.34 236.26C529.03 236.05 530.66 234.34 530.66 231.82C530.66 229.11 528.79 227.36 525.75 227.36H520.33V243.95V243.95ZM509.72 244.23C512.71 244.23 514.86 242.55 514.86 239.77C514.86 237.32 513.48 235.96 511 235L508.8 234.16C507.12 233.51 506.32 232.83 506.32 231.31C506.32 229.79 507.75 228.76 509.55 228.76C511.07 228.76 512.07 229.44 512.94 230.47L514.32 229.35C513.43 228.09 511.73 227.08 509.62 227.08C506.74 227.08 504.55 228.74 504.55 231.33C504.55 233.6 505.65 234.88 508.22 235.86L510.67 236.8C512.19 237.38 513.08 238.37 513.08 239.81C513.08 241.52 511.59 242.54 509.74 242.54C507.73 242.54 506.4 241.65 505.46 240.18L503.99 241.23C504.75 242.9 506.97 244.23 509.72 244.23ZM490.35 243.95H499.81V242.27H492.12V236.26H498.41V234.58H492.12V229.04H499.81V227.36H490.35V243.95ZM473.13 242.27V229.04H475.89C480.19 229.04 483.02 231.82 483.02 235.65C483.02 239.48 480.19 242.26 475.89 242.26H473.13V242.27ZM471.35 243.95H475.88C481.09 243.95 484.81 240.45 484.81 235.65C484.81 230.85 481.09 227.35 475.88 227.35H471.35V243.95ZM464.62 243.95V227.36H462.84V240.94L452.25 227.36H450.68V243.95H452.46V230.37L463.05 243.95H464.62ZM437.77 244.23C441.56 244.23 444.17 241.66 444.17 237.52V227.35H442.39V237.56C442.39 240.76 440.54 242.54 437.76 242.54C434.98 242.54 433.13 240.76 433.13 237.56V227.35H431.35V237.52C431.37 241.66 433.98 244.23 437.77 244.23ZM416.57 242.34V236.15H420.61C423.11 236.15 424.33 237.48 424.33 239.26C424.33 241.06 423.09 242.34 420.59 242.34H416.57V242.34ZM416.57 234.61V228.98H420.15C422.11 228.98 423.23 230.29 423.23 231.81C423.23 233.42 422.11 234.61 420.15 234.61H416.57V234.61ZM414.8 243.95H420.41C423.89 243.95 426.09 241.89 426.09 239.11C426.09 236.8 424.76 235.67 423.1 235.14C424.22 234.49 424.99 233.36 424.99 231.61C424.99 229.37 423.21 227.36 420.04 227.36H414.8V243.95ZM392.39 234.61V229.02H395.83C397.93 229.02 399.15 229.98 399.15 231.82C399.15 233.67 397.93 234.6 395.83 234.6H392.39V234.61ZM390.61 243.95H392.39V236.24H394.28L400.85 243.95H403.16L396.62 236.26C399.31 236.05 400.94 234.34 400.94 231.82C400.94 229.11 399.07 227.36 396.03 227.36H390.61V243.95V243.95ZM375.56 243.95H385.02V242.27H377.33V236.26H383.62V234.58H377.33V229.04H385.02V227.36H375.56V243.95ZM358.34 242.27V229.04H361.1C365.4 229.04 368.23 231.82 368.23 235.65C368.23 239.48 365.4 242.26 361.1 242.26H358.34V242.27ZM356.56 243.95H361.09C366.3 243.95 370.02 240.45 370.02 235.65C370.02 230.85 366.3 227.35 361.09 227.35H356.56V243.95ZM342 243.95V227.36H340.22V240.94L329.63 227.36H328.06V243.95H329.84V230.37L340.43 243.95H342ZM313.96 242.55C310.1 242.55 307.18 239.54 307.18 235.66C307.18 231.78 310.1 228.77 313.96 228.77C317.82 228.77 320.74 231.78 320.74 235.66C320.74 239.54 317.82 242.55 313.96 242.55ZM313.96 244.23C318.75 244.23 322.54 240.49 322.54 235.65C322.54 230.81 318.75 227.07 313.96 227.07C309.17 227.07 305.38 230.81 305.38 235.65C305.38 240.5 309.17 244.23 313.96 244.23ZM286.6 243.95H288.38V236.26H298.08V243.95H299.86V227.36H298.08V234.58H288.38V227.36H286.6V243.95ZM274.68 243.95H276.43V229.04H281.8V227.36H269.3V229.04H274.68V243.95ZM256.73 237.13L259.96 229.86L263.18 237.13H256.73ZM251.87 243.95H253.69L255.98 238.79H263.93L266.22 243.95H268.09L260.68 227.36H259.25L251.87 243.95ZM236.38 243.95H238.13V235.93L247.45 243.95H250.09L239.92 235.23L248.17 227.35H245.76L238.12 234.62V227.35H236.37V243.95H236.38ZM223.99 244.23C227.05 244.23 229.69 242.71 231.21 240.35L229.74 239.42C228.55 241.29 226.49 242.55 223.99 242.55C220.13 242.55 217.21 239.54 217.21 235.66C217.21 231.78 220.13 228.77 223.99 228.77C226.49 228.77 228.55 230.03 229.74 231.9L231.21 230.97C229.69 228.61 227.05 227.09 223.99 227.09C219.2 227.09 215.41 230.83 215.41 235.67C215.41 240.5 219.2 244.23 223.99 244.23ZM201.06 237.13L204.29 229.86L207.51 237.13H201.06ZM196.2 243.95H198.02L200.31 238.79H208.26L210.55 243.95H212.42L205.01 227.36H203.58L196.2 243.95ZM178.35 243.95H180.13V236.26H189.83V243.95H191.61V227.36H189.83V234.58H180.13V227.36H178.35V243.95ZM155.94 234.61V229.02H159.37C161.47 229.02 162.69 229.98 162.69 231.82C162.69 233.67 161.47 234.6 159.37 234.6H155.94V234.61ZM154.16 243.95H155.94V236.24H157.83L164.4 243.95H166.71L160.17 236.26C162.86 236.05 164.49 234.34 164.49 231.82C164.49 229.11 162.62 227.36 159.58 227.36H154.16V243.95V243.95ZM139.11 243.95H148.58V242.27H140.89V236.26H147.18V234.58H140.89V229.04H148.58V227.36H139.11V243.95ZM121.89 242.27V229.04H124.65C128.95 229.04 131.78 231.82 131.78 235.65C131.78 239.48 128.95 242.26 124.65 242.26H121.89V242.27ZM120.11 243.95H124.64C129.85 243.95 133.57 240.45 133.57 235.65C133.57 230.85 129.85 227.35 124.64 227.35H120.11V243.95Z" fill="#2B2B2A"/>
<path d="M805.63 62.2101C808.61 62.3001 811.44 63.5501 813.52 65.6901C880.6 132.77 880.6 241.87 813.52 308.95C746.44 376.03 637.33 376.03 570.26 308.95C565.71 304.53 565.6 297.27 570.02 292.72C574.44 288.17 581.71 288.06 586.26 292.48C586.34 292.56 586.42 292.64 586.5 292.72C644.8 351.02 738.99 351.02 797.29 292.72C855.59 234.42 855.59 140.23 797.29 81.9301C792.74 77.5101 792.64 70.2401 797.06 65.6901C799.3 63.3701 802.41 62.1101 805.63 62.2101Z" fill="black"/>
<path d="M691.89 38.24C745.08 38.24 794.37 66.66 820.93 112.78C847.57 158.88 847.57 215.75 820.93 261.86C794.37 307.97 745.07 336.39 691.89 336.39C685.55 336.49 680.33 331.43 680.23 325.09C680.13 318.75 685.19 313.53 691.53 313.43C691.65 313.43 691.77 313.43 691.89 313.43C736.9 313.43 778.58 289.4 801.04 250.39V250.38L801.05 250.37C823.6 211.34 823.6 163.3 801.05 124.27L801.04 124.26V124.25C778.58 85.23 736.9 61.2 691.89 61.2C685.55 61.3 680.33 56.24 680.23 49.9C680.13 43.56 685.19 38.34 691.53 38.24C691.65 38.24 691.77 38.24 691.89 38.24Z" fill="#DE0000"/>
<path d="M691.89 61.3C724.2 61.3 756.51 73.6001 781.1 98.1901C830.21 147.3 830.2 227.33 781.11 276.52C776.67 281.05 769.4 281.13 764.87 276.69C760.34 272.25 760.26 264.98 764.7 260.45C764.75 260.4 764.8 260.35 764.86 260.29C805.2 219.87 805.19 154.74 764.87 114.41C724.44 74.0001 659.33 74 618.91 114.42C614.49 118.97 607.23 119.08 602.68 114.66C598.13 110.24 598.02 102.97 602.44 98.42C602.52 98.34 602.6 98.26 602.68 98.18C627.27 73.59 659.58 61.3 691.89 61.3Z" fill="#FFCF00"/>
<path d="M969.165 225H978.651V207.307H988.673C1000.77 207.307 1007.26 200.045 1007.26 189.972C1007.26 179.974 1000.84 172.636 988.801 172.636H969.165V225ZM978.651 199.508V180.562H987.344C994.452 180.562 997.597 184.398 997.597 189.972C997.597 195.545 994.452 199.508 987.395 199.508H978.651Z" fill="#2B2B2A"/>
<path d="M1022.7 225H1032.19V205.824H1041.85L1052.13 225H1062.71L1051.39 204.239C1057.55 201.758 1060.8 196.491 1060.8 189.383C1060.8 179.386 1054.35 172.636 1042.34 172.636H1022.7V225ZM1032.19 197.949V180.562H1040.88C1047.96 180.562 1051.13 183.81 1051.13 189.383C1051.13 194.957 1047.96 197.949 1040.93 197.949H1032.19Z" fill="#2B2B2A"/>
<path d="M1123.52 198.818C1123.52 181.892 1113.19 171.92 1099.46 171.92C1085.7 171.92 1075.4 181.892 1075.4 198.818C1075.4 215.719 1085.7 225.716 1099.46 225.716C1113.19 225.716 1123.52 215.744 1123.52 198.818ZM1113.98 198.818C1113.98 210.733 1108 217.202 1099.46 217.202C1090.94 217.202 1084.94 210.733 1084.94 198.818C1084.94 186.903 1090.94 180.435 1099.46 180.435C1108 180.435 1113.98 186.903 1113.98 198.818Z" fill="#2B2B2A"/>
<path d="M1160.35 172.636V209.455C1160.32 214.977 1157.76 217.918 1153.21 217.918C1148.97 217.918 1146.13 215.335 1146.05 211.091H1136.62C1136.62 220.756 1143.68 225.716 1152.85 225.716C1162.95 225.716 1169.73 219.58 1169.75 209.455V172.636H1160.35Z" fill="#2B2B2A"/>
<path d="M1187.25 225H1221.51V217.048H1196.73V202.756H1219.54V194.804H1196.73V180.588H1221.3V172.636H1187.25V225Z" fill="#2B2B2A"/>
<path d="M1238.18 225H1247.67V209.403L1253.47 202.551L1269.09 225H1280.5L1260.07 196.133L1280.32 172.636H1268.73L1248.31 196.696H1247.67V172.636H1238.18V225Z" fill="#2B2B2A"/>
<path d="M1291.81 180.588H1307.99V225H1317.4V180.588H1333.58V172.636H1291.81V180.588Z" fill="#2B2B2A"/>
<path fill-rule="evenodd" clip-rule="evenodd" d="M914 82C915.657 82 917 83.3431 917 85L917 316C917 317.657 915.657 319 914 319C912.343 319 911 317.657 911 316L911 85C911 83.3431 912.343 82 914 82Z" fill="#2B2B2A"/>
</svg>
