<?xml version="1.0" encoding="UTF-8" standalone="no"?>
<!DOCTYPE svg PUBLIC "-//W3C//DTD SVG 1.1//EN" "http://www.w3.org/Graphics/SVG/1.1/DTD/svg11.dtd">
<svg width="100%" height="100%" viewBox="0 0 1002 219" version="1.1" xmlns="http://www.w3.org/2000/svg" xmlns:xlink="http://www.w3.org/1999/xlink" xml:space="preserve" xmlns:serif="http://www.serif.com/" style="fill-rule:evenodd;clip-rule:evenodd;stroke-linejoin:round;stroke-miterlimit:2;">
    <g transform="matrix(1,0,0,1,-170,-166)">
        <rect x="392.6" y="227.4" width="763.5" height="125" style="fill:rgb(20,20,18);"/>
    </g>
    <g id="Layout_SCHRIFT_2_">
    </g>
    <g id="Layout_SCHRIFT_3_" transform="matrix(1,0,0,1,-170,-166)">
        <g>
            <path d="M460.8,333.2C458.5,333.9 456.2,334.4 453.8,334.8C451.5,335.2 448.9,335.3 446,335.3C440.7,335.3 436.2,334.3 432.5,332.3C428.8,330.3 425.8,327.4 423.5,323.5C421.2,319.6 419.5,314.8 418.5,309.2C417.7,303.5 417.2,297 417.2,289.7C417.2,282.5 417.7,276.1 418.8,270.3C419.9,264.5 421.6,259.6 423.9,255.5C426.2,251.4 429.3,248.3 433.1,246.1C436.8,243.8 441.3,242.7 446.6,242.7C449.7,242.7 452.3,242.9 454.3,243.2C456.3,243.5 458.2,243.9 460,244.5C460.4,244.6 460.7,245 460.7,245.7L460.2,254.4C460.2,254.6 460.1,254.8 459.9,255C459.7,255.2 459.5,255.2 459.1,255.1C457.3,254.6 455.7,254.2 454.1,254C452.5,253.8 450.7,253.7 448.5,253.7C444.9,253.7 441.9,254.4 439.5,255.9C437.1,257.4 435.2,259.6 433.7,262.6C432.2,265.6 431.2,269.4 430.7,273.9C430.1,278.4 429.8,283.7 429.8,289.8C429.8,295.6 430.1,300.7 430.7,305.1C431.3,309.4 432.3,313 433.7,315.9C435.1,318.8 437,320.9 439.4,322.4C441.8,323.9 444.8,324.6 448.6,324.6C450.6,324.6 452.5,324.4 454.2,324.1C455.9,323.8 457.6,323.4 459.2,323C459.5,322.7 459.8,322.7 460.2,322.7C460.6,322.7 460.8,323 460.8,323.4L461.3,331.6C461.4,332.6 461.2,333.1 460.8,333.2Z" style="fill:white;fill-rule:nonzero;"/>
            <path d="M513,245.2C513,244.3 513.4,243.9 514.3,243.9L523.6,243.9C524.5,243.9 524.9,244.3 524.9,245.2L524.9,332.7C524.9,333.6 524.5,334 523.6,334L514.3,334C513.4,334 513,333.6 513,332.7L513,293.4C513,292.9 512.7,292.6 512.2,292.6L486.7,292.6C486.2,292.6 485.9,292.9 485.9,293.4L485.9,332.8C485.9,333.7 485.5,334.1 484.6,334.1L475.3,334.1C474.4,334.1 474,333.7 474,332.8L474,245.2C474,244.3 474.4,243.9 475.3,243.9L484.6,243.9C485.5,243.9 485.9,244.3 485.9,245.2L485.9,281.7C485.9,282.2 486.2,282.5 486.7,282.5L512.2,282.5C512.7,282.5 513,282.2 513,281.7L513,245.2Z" style="fill:white;fill-rule:nonzero;"/>
            <path d="M542.7,245.2C542.7,244.3 543.1,243.9 544,243.9L579.4,243.9C580.3,243.9 580.7,244.3 580.7,245.2L580.7,253.3C580.7,254.2 580.3,254.6 579.4,254.6L555.1,254.6C554.6,254.6 554.3,254.9 554.3,255.4L554.3,281.7C554.3,282.2 554.6,282.5 555.1,282.5L577.8,282.5C578.7,282.5 579.1,282.9 579.1,283.8L579.1,291.1C579.1,292 578.7,292.4 577.8,292.4L555.1,292.4C554.6,292.4 554.3,292.7 554.3,293.2L554.3,322.2C554.3,322.7 554.6,323 555.1,323L581.1,323C581.9,323 582.3,323.4 582.3,324.3L582.3,332.7C582.3,333.6 581.9,334 581.1,334L544,334C543.1,334 542.7,333.6 542.7,332.7L542.7,245.2Z" style="fill:white;fill-rule:nonzero;"/>
            <path d="M636.3,333.2C634,333.9 631.7,334.4 629.3,334.8C627,335.2 624.4,335.3 621.5,335.3C616.2,335.3 611.7,334.3 608,332.3C604.3,330.3 601.3,327.4 599,323.5C596.7,319.6 595,314.8 594,309.2C593,303.5 592.5,297 592.5,289.7C592.5,282.5 593,276.1 594.1,270.3C595.2,264.5 596.9,259.6 599.2,255.5C601.5,251.4 604.6,248.3 608.4,246.1C612.2,243.9 616.7,242.8 622,242.8C625.1,242.8 627.7,243 629.7,243.3C631.7,243.6 633.6,244 635.4,244.6C635.8,244.7 636.1,245.1 636.1,245.8L635.6,254.6C635.6,254.8 635.5,255 635.3,255.2C635.1,255.4 634.9,255.4 634.5,255.3C632.7,254.8 631.1,254.4 629.5,254.2C627.9,254 626.1,253.9 623.9,253.9C620.3,253.9 617.3,254.6 614.9,256.1C612.5,257.6 610.6,259.8 609.1,262.8C607.6,265.8 606.6,269.6 606,274.1C605.4,278.6 605.1,283.9 605.1,290C605.1,295.8 605.4,300.9 606,305.3C606.6,309.6 607.6,313.2 609,316.1C610.4,319 612.3,321.1 614.7,322.6C617.1,324.1 620.1,324.8 623.9,324.8C625.9,324.8 627.8,324.6 629.5,324.3C631.2,324 632.9,323.6 634.5,323.2C634.9,323.1 635.2,323.1 635.6,323.1C636,323.1 636.2,323.4 636.2,323.8L636.7,332C636.8,332.6 636.6,333.1 636.3,333.2Z" style="fill:white;fill-rule:nonzero;"/>
            <path d="M660.2,334.1L650.7,334.1C649.8,334.1 649.4,333.7 649.4,332.8L649.4,245.2C649.4,244.3 649.8,243.9 650.7,243.9L660.2,243.9C660.9,243.9 661.3,244.3 661.3,245.2L661.3,281.7C661.3,282.3 661.7,282.6 662.5,282.6C663.2,282.6 663.8,282.3 664.2,281.7L684.9,245.2C685.1,244.8 685.3,244.5 685.6,244.3C685.9,244 686.3,243.9 686.9,243.9L697.8,243.9C698.7,243.9 699,244.3 698.7,245.2L675.6,283.5C675.2,284.2 674.9,284.8 674.7,285.2C674.6,285.6 674.5,286.1 674.5,286.5C674.5,287 674.6,287.5 674.8,287.9C675,288.3 675.2,288.9 675.6,289.6C676.5,291.2 677.6,293.2 679,295.5C680.4,297.8 681.9,300.4 683.4,303.1C685,305.8 686.6,308.6 688.3,311.5C690,314.4 691.6,317.1 693.1,319.8C694.6,322.5 696,324.9 697.2,327.2C698.4,329.5 699.4,331.3 700.1,332.7C700.3,333.1 700.3,333.5 700,333.7C699.8,333.9 699.4,334 699,334L688,334C687.4,334 686.9,333.9 686.7,333.6C686.4,333.3 686.2,333.1 686,332.8C684.9,330.9 683.5,328.2 681.8,325C680.1,321.7 678.2,318.3 676.2,314.6C674.2,310.9 672.1,307.3 670,303.6C667.9,299.9 666,296.7 664.4,293.9C664,293.2 663.8,292.8 663.5,292.6C663.3,292.4 662.9,292.3 662.4,292.3C661.9,292.3 661.5,292.4 661.4,292.5C661.3,292.6 661.2,292.9 661.2,293.2L661.2,332.7C661.2,333.6 660.9,334.1 660.2,334.1Z" style="fill:white;fill-rule:nonzero;"/>
            <path d="M931.6,244.9C931.6,244 932,243.6 932.9,243.6L968.3,243.6C969.2,243.6 969.6,244 969.6,244.9L969.6,253C969.6,253.9 969.2,254.3 968.3,254.3L944.5,254.3C944,254.3 943.7,254.6 943.7,255.1L943.7,284.1C943.7,284.6 944,284.9 944.5,284.9L966.9,284.9C967.8,284.9 968.2,285.3 968.2,286.2L968.2,293.6C968.2,294.5 967.8,294.9 966.9,294.9L944.5,294.9C944,294.9 943.7,295.2 943.7,295.7L943.7,332.3C943.7,333.2 943.3,333.6 942.4,333.6L933,333.6C932.1,333.6 931.7,333.2 931.7,332.3L931.6,244.9Z" style="fill:white;fill-rule:nonzero;"/>
            <path d="M1014.2,310.4C1014.1,309.8 1013.8,309.5 1013.1,309.5L989.9,309.5C989.2,309.5 988.8,309.8 988.7,310.4C988.4,311.6 988.1,313.1 987.6,315.1C987.2,317.1 986.7,319.2 986.3,321.3C985.9,323.5 985.4,325.6 985,327.6C984.6,329.6 984.3,331.2 984,332.4C983.7,333.3 983.2,333.7 982.4,333.7L972.6,333.7C971.7,333.7 971.4,333.3 971.5,332.4C972,329.7 972.8,326.2 973.9,321.7C975,317.2 976.1,312.2 977.3,306.8C978.5,301.4 979.9,295.7 981.3,289.7C982.7,283.7 984.1,277.9 985.4,272.3C986.7,266.7 988,261.5 989.1,256.7C990.2,251.9 991.2,248 992,244.9C992.3,244 992.8,243.6 993.7,243.6L1010.4,243.6C1011.3,243.6 1011.8,244 1012,244.9C1012.8,248.2 1013.8,252.3 1014.9,257.4C1016,262.4 1017.3,267.9 1018.6,273.7C1019.9,279.5 1021.3,285.5 1022.6,291.6C1024,297.7 1025.3,303.4 1026.4,308.8C1027.6,314.2 1028.7,319 1029.6,323.2C1030.5,327.4 1031.2,330.5 1031.5,332.4C1031.8,333.3 1031.5,333.7 1030.6,333.7L1020.2,333.7C1019.8,333.7 1019.4,333.6 1019.3,333.5C1019.1,333.4 1018.9,333 1018.8,332.4C1018.6,331.3 1018.3,329.7 1017.9,327.6C1017.5,325.6 1017.1,323.5 1016.6,321.3C1016.1,319.1 1015.7,317.1 1015.3,315.1C1014.8,313.1 1014.5,311.6 1014.2,310.4ZM1011.6,299.4C1012.2,299.4 1012.5,299.1 1012.5,298.5C1012.1,296.6 1011.6,293.9 1010.9,290.2C1010.2,286.5 1009.4,282.6 1008.5,278.3C1007.6,274.1 1006.8,269.9 1005.9,265.7C1005.1,261.5 1004.3,258 1003.7,255.1C1003.5,254.7 1003.3,254.5 1003.2,254.3C1003,254.1 1002.6,254 1002,254C1000.8,254 1000.3,254.4 1000.3,255.1C999.6,257.9 998.8,261.4 997.8,265.5C996.9,269.6 995.9,273.8 995,278C994.1,282.2 993.2,286.2 992.4,289.9C991.6,293.6 991,296.4 990.7,298.4C990.7,299 991,299.3 991.6,299.3L1011.6,299.3L1011.6,299.4Z" style="fill:white;fill-rule:nonzero;"/>
            <path d="M1081.6,332.8C1079.3,333.5 1077,334 1074.6,334.4C1072.3,334.8 1069.7,334.9 1066.8,334.9C1061.5,334.9 1057,333.9 1053.3,331.9C1049.6,329.9 1046.6,327 1044.3,323.1C1042,319.2 1040.3,314.4 1039.3,308.8C1038.3,303.1 1037.8,296.6 1037.8,289.3C1037.8,282.1 1038.3,275.7 1039.4,269.9C1040.5,264.1 1042.2,259.2 1044.5,255.1C1046.8,251 1049.9,247.9 1053.7,245.7C1057.5,243.5 1062,242.4 1067.3,242.4C1070.4,242.4 1073,242.6 1075,242.9C1077,243.2 1078.9,243.6 1080.7,244.2C1081.1,244.3 1081.4,244.7 1081.4,245.4L1080.9,254.2C1080.9,254.4 1080.8,254.6 1080.6,254.8C1080.4,255 1080.2,255 1079.8,254.9C1078,254.4 1076.4,254 1074.8,253.8C1073.2,253.6 1071.4,253.5 1069.2,253.5C1065.6,253.5 1062.6,254.2 1060.2,255.7C1057.8,257.2 1055.9,259.4 1054.4,262.4C1052.9,265.4 1051.9,269.2 1051.3,273.7C1050.7,278.2 1050.4,283.5 1050.4,289.6C1050.4,295.4 1050.7,300.5 1051.3,304.9C1051.9,309.2 1052.9,312.8 1054.3,315.7C1055.7,318.6 1057.6,320.7 1060,322.2C1062.4,323.7 1065.4,324.4 1069.2,324.4C1071.2,324.4 1073.1,324.2 1074.8,323.9C1076.5,323.6 1078.2,323.2 1079.8,322.8C1080.2,322.7 1080.5,322.7 1080.9,322.7C1081.3,322.7 1081.5,323 1081.5,323.4L1082,331.6C1082.1,332.3 1082,332.8 1081.6,332.8Z" style="fill:white;fill-rule:nonzero;"/>
            <path d="M1103.6,254.9C1103.6,254.4 1103.3,254.1 1102.8,254.1L1089,254.1C1088.1,254.1 1087.7,253.7 1087.7,252.8L1087.7,245C1087.7,244.1 1088.1,243.7 1089,243.7L1130.2,243.7C1131.1,243.7 1131.5,244.1 1131.5,245L1131.5,252.8C1131.5,253.7 1131.1,254.1 1130.2,254.1L1116.4,254.1C1115.9,254.1 1115.6,254.4 1115.6,254.9L1115.6,332.5C1115.6,333.4 1115.2,333.8 1114.3,333.8L1105,333.8C1104.1,333.8 1103.7,333.4 1103.7,332.5L1103.7,254.9L1103.6,254.9Z" style="fill:white;fill-rule:nonzero;"/>
        </g>
        <g>
            <path d="M743.8,254.9C743.8,254.4 743.5,254.1 743,254.1L729.2,254.1C728.3,254.1 727.9,253.7 727.9,252.8L727.9,245C727.9,244.1 728.3,243.7 729.2,243.7L770.3,243.7C771.2,243.7 771.6,244.1 771.6,245L771.6,252.8C771.6,253.7 771.2,254.1 770.3,254.1L756.5,254.1C756,254.1 755.7,254.4 755.7,254.9L755.7,332.5C755.7,333.4 755.3,333.8 754.4,333.8L745.2,333.8C744.3,333.8 743.9,333.4 743.9,332.5L743.8,254.9Z" style="fill:white;fill-rule:nonzero;"/>
            <path d="M821.3,244.9C821.3,244 821.7,243.6 822.6,243.6L831.9,243.6C832.8,243.6 833.2,244 833.2,244.9L833.2,332.4C833.2,333.3 832.8,333.7 831.9,333.7L822.6,333.7C821.7,333.7 821.3,333.3 821.3,332.4L821.3,293C821.3,292.5 821,292.2 820.5,292.2L795,292.2C794.5,292.2 794.2,292.5 794.2,293L794.2,332.4C794.2,333.3 793.8,333.7 792.9,333.7L783.6,333.7C782.7,333.7 782.3,333.3 782.3,332.4L782.3,244.9C782.3,244 782.7,243.6 783.6,243.6L792.9,243.6C793.8,243.6 794.2,244 794.2,244.9L794.2,281.4C794.2,281.9 794.5,282.2 795,282.2L820.5,282.2C821,282.2 821.3,281.9 821.3,281.4L821.3,244.9Z" style="fill:white;fill-rule:nonzero;"/>
            <path d="M851,244.9C851,244 851.4,243.6 852.3,243.6L887.7,243.6C888.6,243.6 889,244 889,244.9L889,253C889,253.9 888.6,254.3 887.7,254.3L863.4,254.3C862.9,254.3 862.6,254.6 862.6,255.1L862.6,281.4C862.6,281.9 862.9,282.2 863.4,282.2L886.2,282.2C887.1,282.2 887.5,282.6 887.5,283.5L887.5,290.8C887.5,291.7 887.1,292.1 886.2,292.1L863.5,292.1C863,292.1 862.7,292.4 862.7,292.9L862.7,321.9C862.7,322.4 863,322.7 863.5,322.7L889.5,322.7C890.3,322.7 890.7,323.1 890.7,324L890.7,332.4C890.7,333.3 890.3,333.7 889.5,333.7L852.4,333.7C851.5,333.7 851.1,333.3 851.1,332.4L851,244.9Z" style="fill:white;fill-rule:nonzero;"/>
        </g>
    </g>
    <g transform="matrix(1,0,0,1,-170,-166)">
        <path d="M353.6,354.2L272.2,354.2C272.2,354.2 252.2,369.6 241.8,377.1C241.8,372.8 245,354.2 245,354.2L230.8,354.2C226.2,354.2 222.5,350.5 222.5,345.9L219.3,224.5C219.3,219.9 223,216.2 227.6,216.2L353.9,226.2C358.4,226.2 362.1,229.9 362.1,234.5L362.1,346C362,350.5 358.3,354.2 353.6,354.2Z" style="fill:rgb(247,204,54);fill-rule:nonzero;"/>
    </g>
    <g transform="matrix(1,0,0,1,-170,-166)">
        <path d="M226.8,369.5C225.5,369.5 224.3,369.2 223.2,368.6C220.5,367.2 218.8,364.5 218.8,361.5C218.8,358.9 219.6,352.8 220.6,346.6L215.9,346.6L215.8,346.6C206.9,346.6 199.5,339.3 199.5,330.3L196.3,208.9C196.3,199.9 203.6,192.6 212.6,192.5L213.3,192.5L339.4,202.5C348.2,202.7 355.3,210 355.3,218.8L355.3,330.3C355.1,339.4 347.8,346.5 338.7,346.5L260,346.5C255.1,350.3 240.1,361.7 231.5,367.9C230.1,369 228.5,369.5 226.8,369.5L226.8,369.5ZM227.7,334.6L234.8,334.6L233.6,341.6C232.9,345.8 232.3,349.7 231.8,352.9C241.7,345.5 253.6,336.4 254.3,335.9L255.9,334.7L338.7,334.7C341.2,334.7 343.2,332.8 343.3,330.3L343.3,218.8C343.3,216.4 341.4,214.5 339,214.5L338.6,214.5L212.5,204.5C210.2,204.6 208.3,206.5 208.2,208.8L211.4,330.2C211.4,332.6 213.4,334.5 215.7,334.5L227.7,334.5L227.7,334.6Z" style="fill:rgb(20,20,18);fill-rule:nonzero;"/>
    </g>
    <g id="Layout_SCHRIFT_4_">
    </g>
</svg>
