<?xml version="1.0" encoding="utf-8"?>
<!-- Generator: Adobe Illustrator 24.1.0, SVG Export Plug-In . SVG Version: 6.00 Build 0)  -->
<svg version="1.1" id="Ebene_1" xmlns="http://www.w3.org/2000/svg" xmlns:xlink="http://www.w3.org/1999/xlink" x="0px" y="0px"
	 viewBox="0 0 283.5 283.5" style="enable-background:new 0 0 283.5 283.5;" xml:space="preserve">
<style type="text/css">
	.st0{fill:#F7CC36;}
	.st1{fill:#FFFFFF;}
	.st2{fill:#141412;}
</style>
<g id="Logo">
	<circle class="st0" cx="141.7" cy="141.7" r="141.7"/>
	<path class="st1" d="M228.2,227.7H126.4c0,0-25.1,19.2-38,28.6c0-5.4,4-28.6,4-28.6H74.6c-5.7,0-10.4-4.7-10.4-10.4l-4-151.7
		c0-5.7,4.7-10.4,10.4-10.4l157.9,12.5c5.7,0,10.2,4.7,10.2,10.3c0,0,0,0.1,0,0.1v139.2C238.6,223.1,233.9,227.7,228.2,227.7z"/>
	<path class="st2" d="M79.7,249.3c-0.4,0-0.8-0.1-1.1-0.3c-0.8-0.4-1.4-1.3-1.4-2.2c0-4.4,2.5-19.6,3.6-26.1H66
		c-7.1,0-13-5.7-13-12.9c0,0,0,0,0-0.1L49,56.1c0-7.1,5.8-13,12.9-13h0.2L220,55.6c7.1,0.1,12.8,5.8,12.8,12.9v139.2
		c-0.2,7.2-6.1,12.9-13.2,12.9h-101c-4.1,3.1-25.8,19.7-37.4,28.2C80.7,249.1,80.2,249.3,79.7,249.3z M61.8,48.2
		c-4.3,0-7.8,3.6-7.8,7.9l4,151.6c0,4.4,3.5,8,7.9,8c0,0,0,0,0,0h17.8c1.4,0,2.5,1.1,2.5,2.5c0,0.1,0,0.3,0,0.4
		c-0.8,4.8-2.7,15.9-3.5,23c13.4-9.9,33.4-25.3,33.5-25.4c0.4-0.3,1-0.5,1.5-0.5h101.8c4.4,0,8.1-3.5,8.2-7.9V68.5
		c0-4.4-3.5-7.9-7.9-7.9h-0.2L61.8,48.2z"/>
	<path class="st2" d="M111.2,112.9c-0.9,0.2-1.9,0.4-2.9,0.5c-1.1,0.1-2.2,0.1-3.2,0.1c-2,0-3.9-0.6-5.6-1.5c-1.6-1-2.9-2.3-3.8-3.9
		c-1.1-1.9-1.8-4-2.1-6.1c-0.5-2.7-0.7-5.5-0.7-8.2c-0.1-2.7,0.1-5.5,0.6-8.1c0.3-2.1,1-4.2,2-6.1c0.9-1.6,2.2-2.8,3.8-3.7
		c1.8-0.9,3.7-1.2,5.7-1c1.1,0.1,2.2,0.2,3.2,0.4c0.8,0.2,1.6,0.4,2.4,0.7c0.2,0,0.3,0.2,0.3,0.5l-0.2,3.6c0,0.1,0,0.2-0.1,0.2
		c-0.1,0.1-0.2,0.1-0.3,0c-0.7-0.3-1.4-0.5-2.1-0.6c-0.8-0.2-1.5-0.3-2.3-0.3c-1.3-0.1-2.6,0.1-3.8,0.7c-1.1,0.6-1.9,1.5-2.4,2.7
		c-0.7,1.5-1.1,3-1.2,4.6c-0.2,2.2-0.3,4.4-0.2,6.6c0,2.1,0.2,4.3,0.4,6.4c0.2,1.6,0.6,3.2,1.3,4.6c0.5,1.2,1.4,2.1,2.4,2.8
		c1.2,0.7,2.5,1.1,3.8,1.1c0.8,0,1.6,0,2.3-0.1c0.7-0.1,1.4-0.2,2.1-0.4c0.2,0,0.3,0,0.5,0c0.2,0,0.3,0.2,0.3,0.3c0,0,0,0,0,0
		l0.3,3.4C111.5,112.7,111.4,112.9,111.2,112.9z"/>
	<path class="st2" d="M132.6,77.8c0-0.4,0.2-0.5,0.6-0.5l3.9,0.3c0.3,0,0.5,0.2,0.6,0.5c0,0,0,0,0,0.1l0.3,35.9
		c0,0.3-0.1,0.5-0.4,0.5c-0.1,0-0.1,0-0.2,0l-3.9-0.2c-0.3,0-0.5-0.2-0.6-0.5c0,0,0-0.1,0-0.1l-0.1-16.2c0-0.2-0.1-0.3-0.3-0.3
		c0,0,0,0-0.1,0l-10.6-0.6c-0.2,0-0.3,0.1-0.3,0.3l0.2,16.3c0,0.3-0.1,0.5-0.4,0.5c-0.1,0-0.1,0-0.2,0l-3.9-0.2
		c-0.3,0-0.5-0.2-0.6-0.5c0,0,0-0.1,0-0.1l-0.4-36.3c0-0.3,0.1-0.5,0.4-0.5c0.1,0,0.1,0,0.2,0l3.9,0.3c0.3,0,0.5,0.2,0.6,0.5
		c0,0,0,0.1,0,0.1l0.1,15.1c0,0.2,0.1,0.3,0.3,0.3c0,0,0,0,0.1,0l10.6,0.7c0.2,0,0.3-0.1,0.3-0.3L132.6,77.8z"/>
	<path class="st2" d="M145.1,78.7c0-0.4,0.2-0.5,0.6-0.5l14.8,1c0.3,0,0.5,0.2,0.6,0.5c0,0,0,0.1,0,0.1V83c0,0.4-0.2,0.5-0.6,0.5
		l-10.1-0.6c-0.2,0-0.3,0.1-0.3,0.3l0,10.7c0,0.2,0.1,0.3,0.3,0.3c0,0,0,0,0,0l9.5,0.6c0.3,0,0.5,0.2,0.6,0.5c0,0,0,0,0,0.1v3
		c0,0.4-0.2,0.5-0.6,0.5l-9.5-0.6c-0.2,0-0.3,0.1-0.3,0.3l0.1,11.8c0,0.2,0.1,0.3,0.3,0.3c0,0,0,0,0.1,0l10.8,0.6
		c0.3,0,0.5,0.2,0.5,0.5c0,0,0,0.1,0,0.1v3.4c0,0.4-0.2,0.5-0.5,0.5l-15.4-0.8c-0.3,0-0.5-0.2-0.6-0.5c0,0,0-0.1,0-0.1L145.1,78.7z"
		/>
	<path class="st2" d="M184.3,116.5c-1,0.2-1.9,0.4-2.9,0.5c-1.1,0.1-2.2,0.1-3.2,0c-2,0-3.9-0.5-5.6-1.5c-1.6-0.9-2.8-2.2-3.7-3.7
		c-1-1.8-1.8-3.8-2.1-5.9c-0.5-2.6-0.7-5.3-0.7-7.9c0-2.6,0.2-5.2,0.6-7.8c0.3-2.1,1.1-4,2.1-5.8c0.9-1.5,2.2-2.7,3.8-3.5
		c1.8-0.8,3.7-1.1,5.7-0.9c1.1,0.1,2.2,0.2,3.2,0.4c0.8,0.2,1.6,0.4,2.4,0.7c0.2,0.1,0.3,0.2,0.3,0.5l-0.2,3.5c0,0.1,0,0.2-0.1,0.2
		c-0.1,0.1-0.2,0.1-0.3,0c-0.7-0.2-1.4-0.4-2.1-0.6c-0.8-0.1-1.5-0.2-2.3-0.3c-1.3-0.1-2.6,0.1-3.8,0.6c-1,0.6-1.9,1.5-2.4,2.5
		c-0.7,1.4-1.1,2.9-1.3,4.5c-0.2,2.1-0.4,4.2-0.3,6.4c0,2.1,0.1,4.1,0.4,6.2c0.2,1.6,0.6,3.1,1.3,4.5c0.5,1.1,1.4,2.1,2.4,2.7
		c1.2,0.7,2.5,1.1,3.8,1.1c0.8,0,1.6,0,2.3-0.1c0.7-0.1,1.4-0.2,2.1-0.3c0.2,0,0.3,0,0.5,0c0.2,0,0.3,0.2,0.3,0.3c0,0,0,0,0,0
		l0.2,3.3C184.5,116.3,184.5,116.5,184.3,116.5z"/>
	<path class="st2" d="M194.2,117.4l-4-0.2c-0.3,0-0.5-0.2-0.6-0.5c0,0,0-0.1,0-0.1l-0.1-34.8c0-0.3,0.2-0.5,0.6-0.5l4,0.3
		c0.3,0,0.4,0.2,0.4,0.6v14.5c0,0.2,0.2,0.4,0.5,0.4c0.3,0,0.6-0.1,0.7-0.3l8.6-13.8c0.1-0.1,0.2-0.3,0.3-0.3
		c0.2-0.1,0.3-0.1,0.5-0.1l4.6,0.3c0.4,0,0.5,0.2,0.4,0.6l-9.6,14.5c-0.2,0.2-0.3,0.4-0.4,0.7c-0.1,0.2-0.1,0.3-0.1,0.5
		c0,0.2,0,0.4,0.1,0.6c0.1,0.2,0.2,0.4,0.3,0.7c0.4,0.7,0.8,1.4,1.4,2.4l1.9,3.1c0.7,1.1,1.3,2.3,2.1,3.4s1.4,2.3,2,3.4l1.7,3
		c0.5,0.9,0.9,1.7,1.2,2.2c0.1,0.2,0.1,0.3,0,0.4c-0.1,0.1-0.3,0.1-0.4,0.1l-4.6-0.2c-0.2,0-0.4-0.1-0.6-0.2
		c-0.1-0.1-0.2-0.2-0.3-0.3c-0.4-0.8-1-1.8-1.7-3.2s-1.5-2.7-2.4-4.2s-1.7-3-2.6-4.5s-1.6-2.8-2.4-4c-0.1-0.2-0.2-0.4-0.4-0.6
		c-0.1-0.1-0.3-0.1-0.5-0.1c-0.2,0-0.4,0-0.4,0.1s-0.1,0.1-0.1,0.3v15.7C194.7,117.2,194.6,117.4,194.2,117.4z"/>
	<path class="st2" d="M128.2,161.5c0-0.3,0.1-0.5,0.4-0.5c0.1,0,0.1,0,0.2,0l14.7,0.3c0.3,0,0.5,0.2,0.6,0.4c0,0,0,0.1,0,0.1v3.3
		c0,0.3-0.1,0.5-0.4,0.5c-0.1,0-0.1,0-0.2,0l-9.9-0.2c-0.2,0-0.3,0.1-0.3,0.3l0.1,12c0,0.2,0.1,0.3,0.3,0.3c0,0,0,0,0.1,0l9.3,0.1
		c0.3,0,0.5,0.2,0.6,0.4c0,0,0,0.1,0,0.1v3c0,0.3-0.1,0.5-0.4,0.5c0,0-0.1,0-0.1,0l-9.3-0.1c-0.2,0-0.3,0.1-0.3,0.2c0,0,0,0.1,0,0.1
		l0.1,15.1c0,0.3-0.1,0.5-0.4,0.5c0,0-0.1,0-0.1,0h-3.8c-0.3,0-0.5-0.2-0.6-0.4c0,0,0-0.1,0-0.1L128.2,161.5z"/>
	<path class="st2" d="M162.6,188.8c0-0.2-0.2-0.4-0.4-0.4c0,0,0,0,0,0l-9.6-0.1c-0.3,0-0.4,0.1-0.5,0.4c-0.1,0.5-0.2,1.1-0.4,1.9
		c-0.2,0.8-0.4,1.6-0.5,2.5s-0.4,1.7-0.5,2.6s-0.3,1.5-0.4,1.9c-0.1,0.3-0.3,0.5-0.7,0.5h-4c-0.4,0-0.5-0.2-0.4-0.5
		c0.2-1.1,0.5-2.6,0.9-4.4s0.9-3.9,1.4-6.1s1-4.5,1.6-7s1.1-4.8,1.7-7.1s1-4.4,1.5-6.3s0.9-3.5,1.2-4.8c0.1-0.3,0.4-0.6,0.7-0.5
		l6.9,0.2c0.3,0,0.6,0.2,0.7,0.6c0.3,1.3,0.8,3,1.2,5.1c0.5,2.1,1,4.3,1.6,6.6l1.7,7.3c0.6,2.5,1.1,4.8,1.6,7s0.9,4.1,1.3,5.8
		s0.7,2.9,0.8,3.7c0.1,0.4,0,0.5-0.4,0.5h-4.4c-0.1,0-0.3,0-0.4-0.1c-0.1-0.1-0.2-0.3-0.2-0.5c-0.1-0.5-0.2-1.1-0.4-1.9
		s-0.4-1.7-0.6-2.6s-0.4-1.7-0.6-2.5S162.7,189.2,162.6,188.8z M161.5,184.3c0.2,0,0.3-0.1,0.4-0.3c0,0,0-0.1,0-0.1l-0.7-3.4
		c-0.3-1.5-0.6-3.1-1-4.8s-0.7-3.4-1.1-5.1s-0.7-3.1-0.9-4.3c-0.1-0.1-0.1-0.2-0.2-0.3c-0.1-0.1-0.3-0.1-0.5-0.1
		c-0.5,0-0.7,0.1-0.7,0.4c-0.3,1.1-0.6,2.6-1,4.2s-0.8,3.4-1.1,5.1s-0.7,3.3-1,4.8s-0.6,2.6-0.7,3.4c0,0.2,0.1,0.4,0.3,0.4
		c0,0,0,0,0.1,0L161.5,184.3z"/>
	<path class="st2" d="M190.5,197.9c-0.9,0.3-1.9,0.5-2.9,0.6c-1.1,0.1-2.1,0.2-3.2,0.2c-1.9,0.1-3.8-0.4-5.6-1.2
		c-1.5-0.8-2.8-2-3.7-3.5c-1-1.8-1.8-3.7-2.1-5.8c-0.5-2.6-0.7-5.2-0.7-7.9c0-2.6,0.2-5.2,0.6-7.8c0.3-2.1,1.1-4.1,2.1-5.9
		c0.9-1.6,2.2-2.8,3.8-3.7c1.7-0.9,3.7-1.3,5.6-1.2c1.1,0,2.1,0.1,3.2,0.2c0.8,0.1,1.6,0.3,2.4,0.6c0.2,0,0.3,0.2,0.3,0.5l-0.2,3.5
		c0,0.1,0,0.2-0.1,0.2c-0.1,0.1-0.2,0.1-0.3,0c-0.7-0.2-1.4-0.4-2.1-0.5c-0.8-0.1-1.5-0.2-2.3-0.2c-1.3-0.1-2.6,0.2-3.7,0.8
		c-1,0.6-1.9,1.5-2.4,2.6c-0.7,1.4-1.1,2.9-1.2,4.5c-0.2,2.1-0.4,4.2-0.3,6.4c0,2,0.1,4.1,0.4,6.1c0.2,1.5,0.6,3,1.2,4.3
		c0.5,1.1,1.3,2,2.4,2.6c1.2,0.6,2.5,0.9,3.8,0.9c0.8,0,1.5-0.1,2.3-0.2c0.7-0.1,1.4-0.3,2.1-0.4c0.2,0,0.3,0,0.5,0
		c0.1,0,0.3,0.1,0.3,0.3c0,0,0,0,0,0l0.2,3.3C190.7,197.6,190.6,197.8,190.5,197.9z"/>
	<path class="st2" d="M199.5,167c0-0.2-0.1-0.3-0.3-0.3l-5.7-0.1c-0.3,0-0.5-0.2-0.5-0.4c0,0,0-0.1,0-0.1v-3.1
		c0-0.4,0.2-0.5,0.6-0.5l17,0.4c0.4,0,0.6,0.2,0.6,0.5v3.1c0,0.4-0.2,0.5-0.6,0.5l-5.7-0.1c-0.2,0-0.3,0.1-0.3,0.3v30.6
		c0,0.3-0.2,0.5-0.6,0.5H200c-0.3,0-0.5-0.1-0.5-0.4c0,0,0-0.1,0-0.1L199.5,167z"/>
	<path class="st2" d="M150,124.9c0-0.2-0.1-0.3-0.3-0.3c0,0,0,0-0.1,0l-5.7-0.2c-0.3,0-0.5-0.2-0.6-0.5c0,0,0-0.1,0-0.1v-3.2
		c0-0.3,0.1-0.5,0.4-0.5c0.1,0,0.1,0,0.2,0l17.1,0.8c0.3,0,0.5,0.2,0.6,0.5c0,0,0,0.1,0,0.1v3.2c0,0.3-0.1,0.5-0.4,0.5
		c-0.1,0-0.1,0-0.2,0l-5.7-0.2c-0.2,0-0.3,0.1-0.3,0.2c0,0,0,0.1,0,0.1l0.2,31.5c0,0.4-0.2,0.5-0.6,0.5l-3.9-0.1
		c-0.3,0-0.5-0.2-0.6-0.4c0,0,0-0.1,0-0.1L150,124.9z"/>
	<path class="st2" d="M182.2,122.3c0-0.3,0.2-0.5,0.6-0.5l3.9,0.2c0.3,0,0.5,0.2,0.6,0.5c0,0,0,0.1,0,0.1l0.1,34.9
		c0,0.4-0.2,0.5-0.6,0.5l-3.9-0.1c-0.3,0-0.5-0.2-0.6-0.4c0,0,0-0.1,0-0.1l-0.1-15.7c0-0.2-0.1-0.3-0.3-0.3c0,0,0,0-0.1,0l-10.6-0.4
		c-0.2,0-0.3,0.1-0.3,0.3l0.1,15.9c0,0.3-0.1,0.5-0.4,0.5c-0.1,0-0.1,0-0.2,0l-3.9-0.1c-0.3,0-0.5-0.2-0.6-0.4c0,0,0-0.1,0-0.1
		l-0.2-35.3c0-0.4,0.2-0.5,0.6-0.5l3.9,0.2c0.3,0,0.5,0.2,0.6,0.5c0,0,0,0.1,0,0.1l0.1,14.7c0,0.2,0.1,0.3,0.3,0.3c0,0,0,0,0.1,0
		l10.6,0.4c0.2,0,0.3-0.1,0.3-0.3L182.2,122.3z"/>
	<path class="st2" d="M194.6,122.9c0-0.3,0.2-0.5,0.6-0.5l14.7,0.7c0.4,0,0.6,0.2,0.6,0.6v3.2c0,0.3-0.2,0.5-0.6,0.5l-10.1-0.4
		c-0.2,0-0.3,0.1-0.3,0.3v10.4c0,0.2,0.1,0.3,0.3,0.3c0,0,0,0,0.1,0l9.4,0.4c0.4,0,0.6,0.2,0.6,0.5v2.9c0,0.4-0.2,0.5-0.6,0.5
		l-9.4-0.3c-0.2,0-0.3,0.1-0.3,0.3v11.5c0,0.2,0.1,0.3,0.3,0.3l10.8,0.3c0.3,0,0.5,0.2,0.5,0.5v3.2c0,0.4-0.2,0.5-0.5,0.5l-15.4-0.4
		c-0.4,0-0.6-0.2-0.6-0.5L194.6,122.9z"/>
</g>
</svg>
