<?xml version="1.0" encoding="UTF-8" standalone="no"?>
<!DOCTYPE svg PUBLIC "-//W3C//DTD SVG 1.1//EN" "http://www.w3.org/Graphics/SVG/1.1/DTD/svg11.dtd">
<svg width="100%" height="100%" viewBox="0 0 1309 1388" version="1.1" xmlns="http://www.w3.org/2000/svg" xmlns:xlink="http://www.w3.org/1999/xlink" xml:space="preserve" xmlns:serif="http://www.serif.com/" style="fill-rule:evenodd;clip-rule:evenodd;stroke-linejoin:round;stroke-miterlimit:2;">
    <g transform="matrix(4.16667,0,0,4.16667,0,0)">
        <path d="M141.73,0.78C220.005,0.78 283.46,64.235 283.46,142.51C283.46,220.785 220.005,284.24 141.73,284.24C63.454,284.24 0,220.785 0,142.51C0,64.235 63.454,0.78 141.73,0.78Z" style="fill:rgb(245,201,68);fill-rule:nonzero;"/>
        <path d="M228.16,228.5L126.38,228.5C126.38,228.5 101.32,247.75 88.379,257.14C88.379,251.77 92.379,228.5 92.379,228.5L74.64,228.5C68.893,228.489 64.236,223.837 64.22,218.09L60.22,66.401C60.236,60.66 64.879,56.008 70.62,55.981L228.53,68.43C234.202,68.468 238.768,73.097 238.73,78.769L238.73,218.09C238.643,223.865 233.935,228.501 228.16,228.5Z" style="fill:white;fill-rule:nonzero;"/>
        <path d="M61.85,48.93C57.505,48.974 54.005,52.506 53.999,56.85L57.999,208.47C57.966,212.855 61.494,216.436 65.879,216.469C65.893,216.469 65.906,216.47 65.919,216.47L83.689,216.47C85.07,216.471 86.188,217.592 86.187,218.972C86.187,219.116 86.174,219.259 86.149,219.4C85.319,224.22 83.49,235.32 82.629,242.4C95.999,232.46 116,217.14 116.18,216.97C116.615,216.633 117.149,216.449 117.7,216.45L219.48,216.45C223.919,216.485 227.578,212.977 227.73,208.54L227.73,69.3C227.735,64.94 224.211,61.397 219.85,61.381L219.65,61.381L61.85,48.93ZM79.66,250.09C79.267,250.092 78.879,249.999 78.53,249.82C77.691,249.392 77.162,248.531 77.16,247.59C77.16,243.19 79.64,227.94 80.729,221.45L65.999,221.45C58.858,221.489 53.039,215.731 52.999,208.591L52.999,208.54L48.999,56.91C48.999,49.762 54.771,43.954 61.919,43.91L62.109,43.91L220,56.381C227.081,56.457 232.78,62.219 232.78,69.3L232.78,208.54C232.591,215.722 226.715,221.447 219.53,221.45L118.55,221.45C114.46,224.59 92.8,241.17 81.129,249.62C80.7,249.925 80.187,250.09 79.66,250.09Z" style="fill:rgb(4,7,11);fill-rule:nonzero;"/>
        <path d="M111.24,113.72C110.291,113.968 109.326,114.142 108.35,114.24C107.276,114.341 106.197,114.364 105.12,114.31C103.15,114.266 101.22,113.741 99.499,112.78C97.93,111.829 96.631,110.489 95.729,108.89C94.675,106.989 93.952,104.923 93.589,102.78C93.103,100.061 92.856,97.303 92.85,94.541C92.789,91.816 92.979,89.09 93.419,86.401C93.718,84.271 94.395,82.212 95.419,80.32C96.302,78.756 97.614,77.475 99.2,76.631C100.958,75.77 102.924,75.424 104.87,75.631C105.952,75.693 107.028,75.833 108.09,76.05C108.902,76.229 109.7,76.463 110.48,76.751C110.66,76.751 110.76,76.97 110.76,77.26L110.57,80.89C110.571,80.984 110.535,81.074 110.47,81.14C110.39,81.22 110.28,81.231 110.14,81.14C109.449,80.888 108.74,80.684 108.02,80.53C107.251,80.377 106.473,80.276 105.69,80.231C104.403,80.089 103.102,80.318 101.94,80.89C100.886,81.5 100.053,82.427 99.56,83.54C98.896,85.008 98.484,86.576 98.339,88.18C98.126,90.374 98.049,92.578 98.109,94.78C98.117,96.927 98.261,99.072 98.54,101.2C98.728,102.795 99.167,104.351 99.839,105.81C100.371,106.961 101.204,107.946 102.25,108.66C103.401,109.366 104.72,109.75 106.07,109.77C106.844,109.816 107.621,109.789 108.39,109.69C109.09,109.6 109.78,109.48 110.48,109.33C110.635,109.3 110.795,109.3 110.95,109.33C111.104,109.345 111.217,109.482 111.202,109.635C111.201,109.64 111.201,109.645 111.2,109.65L111.46,113.08C111.46,113.49 111.39,113.69 111.24,113.72Z" style="fill:rgb(4,7,11);fill-rule:nonzero;"/>
        <path d="M132.65,78.611C132.65,78.24 132.83,78.08 133.2,78.1L137.08,78.37C137.378,78.358 137.629,78.59 137.642,78.888C137.643,78.912 137.642,78.936 137.64,78.961L137.92,114.87C137.958,115.121 137.787,115.356 137.535,115.395C137.48,115.403 137.424,115.402 137.37,115.39L133.5,115.2C133.213,115.218 132.966,115 132.949,114.714C132.947,114.686 132.947,114.658 132.95,114.63L132.81,98.421C132.832,98.251 132.713,98.095 132.543,98.072C132.522,98.069 132.501,98.069 132.48,98.07L121.86,97.45C121.63,97.45 121.53,97.54 121.53,97.76L121.68,114.07C121.719,114.321 121.546,114.556 121.295,114.594C121.24,114.603 121.185,114.601 121.13,114.59L117.27,114.4C116.984,114.424 116.732,114.212 116.708,113.925C116.705,113.89 116.706,113.855 116.71,113.82L116.35,77.47C116.311,77.219 116.483,76.985 116.735,76.946C116.789,76.937 116.846,76.939 116.9,76.95L120.78,77.231C121.072,77.213 121.324,77.435 121.341,77.727C121.343,77.755 121.343,77.783 121.34,77.81L121.48,92.921C121.463,93.096 121.592,93.253 121.768,93.27C121.785,93.271 121.803,93.272 121.82,93.271L132.44,93.921C132.67,93.921 132.78,93.83 132.77,93.62L132.65,78.611Z" style="fill:rgb(4,7,11);fill-rule:nonzero;"/>
        <path d="M145.07,79.481C145.07,79.12 145.25,78.95 145.62,78.981L160.42,79.981C160.706,79.957 160.957,80.17 160.98,80.456C160.983,80.487 160.983,80.519 160.98,80.55L160.98,83.83C160.98,84.191 160.79,84.35 160.43,84.33L150.3,83.68C150.08,83.68 149.97,83.78 149.97,83.981L150,94.68C149.989,94.857 150.122,95.009 150.299,95.021L150.34,95.021L159.8,95.6C160.092,95.583 160.343,95.806 160.36,96.098C160.362,96.122 160.362,96.146 160.36,96.171L160.36,99.171C160.36,99.53 160.17,99.691 159.8,99.671L150.34,99.111C150.12,99.111 150.01,99.2 150.01,99.421L150.09,111.25C150.067,111.414 150.181,111.566 150.345,111.589C150.37,111.592 150.395,111.593 150.42,111.59L161.25,112.15C161.52,112.142 161.746,112.354 161.755,112.625C161.756,112.653 161.754,112.682 161.75,112.71L161.75,116.09C161.75,116.45 161.59,116.62 161.26,116.61L145.87,115.78C145.583,115.798 145.336,115.58 145.318,115.294C145.317,115.266 145.317,115.238 145.32,115.21L145.07,79.481Z" style="fill:rgb(4,7,11);fill-rule:nonzero;"/>
        <path d="M184.31,117.32C183.356,117.556 182.388,117.723 181.41,117.82C180.335,117.897 179.255,117.897 178.18,117.82C176.221,117.778 174.299,117.274 172.57,116.35C171.018,115.452 169.727,114.163 168.83,112.61C167.787,110.79 167.076,108.799 166.73,106.73C166.266,104.119 166.041,101.471 166.06,98.82C166.018,96.21 166.227,93.602 166.68,91.03C167.016,88.973 167.731,86.996 168.79,85.2C169.698,83.691 171.016,82.47 172.59,81.68C174.365,80.864 176.327,80.543 178.27,80.751C179.352,80.814 180.428,80.951 181.49,81.16C182.296,81.337 183.091,81.561 183.87,81.83C184.06,81.881 184.15,82.05 184.15,82.33L183.94,85.81C183.932,85.898 183.893,85.979 183.83,86.041C183.757,86.12 183.646,86.12 183.5,86.041C182.812,85.793 182.106,85.595 181.39,85.45C180.62,85.305 179.842,85.208 179.06,85.16C177.773,85.012 176.471,85.227 175.3,85.78C174.252,86.348 173.412,87.235 172.9,88.311C172.226,89.716 171.799,91.229 171.64,92.78C171.393,94.898 171.282,97.029 171.31,99.16C171.301,101.217 171.432,103.271 171.7,105.31C171.881,106.862 172.32,108.373 173,109.78C173.532,110.892 174.358,111.836 175.39,112.51C176.543,113.198 177.857,113.571 179.2,113.59C179.974,113.634 180.75,113.611 181.52,113.52C182.22,113.43 182.92,113.32 183.62,113.18C183.775,113.155 183.935,113.155 184.09,113.18C184.244,113.196 184.356,113.333 184.341,113.487C184.34,113.488 184.34,113.489 184.34,113.49L184.57,116.78C184.53,117.11 184.46,117.3 184.31,117.32Z" style="fill:rgb(4,7,11);fill-rule:nonzero;"/>
        <path d="M194.25,118.18L190.25,117.99C189.97,118.019 189.719,117.816 189.69,117.535C189.686,117.5 189.686,117.465 189.69,117.43L189.61,82.6C189.61,82.251 189.79,82.09 190.16,82.12L194.16,82.401C194.45,82.401 194.6,82.6 194.6,82.95L194.6,97.421C194.6,97.671 194.76,97.8 195.09,97.82C195.369,97.847 195.643,97.726 195.81,97.501L204.44,83.651C204.512,83.512 204.614,83.392 204.74,83.3C204.898,83.204 205.085,83.161 205.27,83.18L209.82,83.501C210.19,83.501 210.32,83.711 210.2,84.05L200.58,98.521C200.427,98.721 200.306,98.944 200.22,99.18C200.162,99.348 200.132,99.524 200.13,99.7C200.126,99.894 200.167,100.086 200.25,100.26C200.32,100.421 200.43,100.651 200.58,100.94C200.95,101.59 201.42,102.39 201.99,103.35L203.85,106.47C204.51,107.58 205.19,108.73 205.9,109.9C206.61,111.07 207.26,112.19 207.9,113.27L209.61,116.27C210.13,117.19 210.53,117.93 210.83,118.5C210.896,118.68 210.896,118.81 210.83,118.89C210.71,118.981 210.56,119.02 210.41,119L205.83,118.77C205.631,118.781 205.435,118.717 205.28,118.59C205.175,118.49 205.081,118.38 205,118.26C204.56,117.47 204,116.41 203.26,115.09C202.52,113.77 201.75,112.35 200.91,110.85C200.07,109.35 199.2,107.85 198.33,106.36C197.46,104.87 196.68,103.52 195.97,102.36C195.88,102.159 195.758,101.973 195.61,101.81C195.47,101.722 195.306,101.676 195.14,101.68C194.92,101.68 194.78,101.68 194.73,101.74C194.68,101.8 194.64,101.88 194.64,102.02L194.64,117.7C194.69,118.03 194.55,118.2 194.25,118.18Z" style="fill:rgb(4,7,11);fill-rule:nonzero;"/>
        <path d="M128.229,162.31C128.192,162.053 128.371,161.815 128.627,161.777C128.677,161.77 128.729,161.771 128.78,161.78L143.45,162.1C143.725,162.071 143.971,162.27 144,162.545C144.004,162.579 144.004,162.615 144,162.65L144,165.96C144.038,166.217 143.859,166.456 143.602,166.493C143.552,166.501 143.5,166.5 143.45,166.49L133.56,166.3C133.34,166.3 133.23,166.4 133.24,166.62L133.34,178.62C133.323,178.785 133.442,178.932 133.607,178.95C133.628,178.952 133.649,178.952 133.67,178.95L142.94,179.06C143.208,179.024 143.455,179.214 143.49,179.481C143.496,179.524 143.496,179.567 143.49,179.61L143.49,182.61C143.526,182.867 143.348,183.105 143.091,183.141C143.044,183.148 142.997,183.147 142.95,183.14L133.68,183.05C133.527,183.025 133.383,183.129 133.358,183.281C133.353,183.314 133.353,183.347 133.36,183.38L133.48,198.44C133.521,198.702 133.342,198.948 133.081,198.989C133.034,198.996 132.987,198.997 132.94,198.99L129.1,198.99C128.83,199.025 128.585,198.837 128.55,198.568C128.544,198.526 128.544,198.483 128.55,198.44L128.229,162.31Z" style="fill:rgb(4,7,11);fill-rule:nonzero;"/>
        <path d="M161.49,185.09C161.67,185.119 161.84,184.997 161.869,184.817C161.874,184.785 161.874,184.753 161.87,184.72L161.19,181.36C160.89,179.87 160.55,178.26 160.19,176.54C159.83,174.82 159.45,173.11 159.09,171.42C158.73,169.73 158.42,168.29 158.16,167.1C158.098,166.983 158.023,166.873 157.94,166.77C157.79,166.678 157.614,166.64 157.44,166.66C156.96,166.66 156.73,166.79 156.73,167.07C156.44,168.22 156.11,169.62 155.73,171.28C155.35,172.94 154.98,174.64 154.61,176.36C154.24,178.08 153.89,179.69 153.61,181.2C153.33,182.71 153.06,183.85 152.91,184.64C152.892,184.833 153.034,185.003 153.226,185.021C153.25,185.023 153.275,185.023 153.3,185.02L161.49,185.09ZM162.6,189.55C162.591,189.335 162.409,189.168 162.193,189.177C162.183,189.177 162.171,189.178 162.16,189.18L152.57,189.12C152.28,189.12 152.12,189.24 152.08,189.49C151.98,189.964 151.84,190.603 151.66,191.41C151.48,192.22 151.3,193.06 151.13,193.94C150.96,194.82 150.78,195.68 150.62,196.51C150.46,197.34 150.33,197.98 150.23,198.45C150.171,198.767 149.893,198.996 149.57,198.99L145.57,198.99C145.21,198.99 145.06,198.81 145.13,198.45C145.34,197.37 145.66,195.9 146.08,194.06C146.5,192.22 146.97,190.19 147.47,187.98C147.97,185.77 148.47,183.44 149.06,180.98C149.65,178.52 150.18,176.2 150.72,173.92C151.26,171.64 151.72,169.54 152.21,167.6C152.7,165.66 153.07,164.08 153.39,162.83C153.464,162.498 153.771,162.272 154.11,162.3L161.03,162.46C161.362,162.437 161.653,162.679 161.69,163.01C162.03,164.343 162.443,166.03 162.93,168.07C163.41,170.12 163.93,172.33 164.5,174.69L166.21,181.95C166.79,184.41 167.33,186.74 167.83,188.95C168.33,191.16 168.78,193.07 169.17,194.76C169.56,196.45 169.83,197.69 169.98,198.47C170.09,198.83 169.98,199.01 169.6,199.01L165.17,199.01C165.035,199.02 164.9,198.992 164.78,198.93C164.672,198.796 164.597,198.638 164.56,198.47C164.49,198.01 164.37,197.36 164.2,196.54C164.03,195.72 163.84,194.87 163.64,193.99C163.44,193.11 163.24,192.28 163.08,191.47C162.92,190.66 162.72,190.02 162.6,189.55Z" style="fill:rgb(4,7,11);fill-rule:nonzero;"/>
        <path d="M190.46,198.64C189.519,198.918 188.56,199.128 187.59,199.27C186.529,199.416 185.46,199.486 184.39,199.48C182.467,199.54 180.558,199.129 178.83,198.28C177.291,197.464 176.008,196.239 175.12,194.74C174.071,192.964 173.352,191.012 173,188.98C172.543,186.388 172.322,183.761 172.34,181.13C172.3,178.516 172.508,175.905 172.96,173.33C173.303,171.256 174.011,169.258 175.05,167.43C175.952,165.878 177.259,164.599 178.83,163.73C180.567,162.837 182.51,162.423 184.46,162.53C185.527,162.541 186.594,162.625 187.65,162.78C188.448,162.913 189.237,163.1 190.01,163.34C190.19,163.34 190.28,163.54 190.29,163.82L190.07,167.29C190.066,167.382 190.026,167.467 189.96,167.53C189.89,167.62 189.78,167.62 189.63,167.53C188.95,167.314 188.255,167.15 187.55,167.04C186.784,166.931 186.013,166.872 185.24,166.86C183.947,166.785 182.658,167.061 181.51,167.66C180.473,168.284 179.643,169.203 179.13,170.3C178.464,171.719 178.042,173.241 177.88,174.8C177.633,176.914 177.522,179.042 177.55,181.17C177.538,183.217 177.665,185.261 177.93,187.29C178.1,188.793 178.518,190.256 179.17,191.62C179.688,192.702 180.513,193.609 181.54,194.23C182.696,194.864 184.003,195.172 185.32,195.12C186.091,195.126 186.86,195.065 187.62,194.94C188.31,194.82 189,194.67 189.7,194.5C189.852,194.474 190.008,194.474 190.16,194.5C190.304,194.505 190.416,194.625 190.412,194.768C190.411,194.775 190.411,194.783 190.41,194.79L190.64,198.06C190.68,198.41 190.6,198.6 190.46,198.64Z" style="fill:rgb(4,7,11);fill-rule:nonzero;"/>
        <path d="M199.51,167.78C199.51,167.57 199.4,167.47 199.18,167.46L193.46,167.35C193.191,167.384 192.946,167.195 192.911,166.927C192.906,166.888 192.905,166.849 192.91,166.81L192.91,163.7C192.91,163.35 193.09,163.18 193.46,163.19L210.46,163.57C210.83,163.57 211.01,163.75 211.01,164.1L211.01,167.17C211.01,167.52 210.83,167.69 210.46,167.68L204.75,167.57C204.53,167.57 204.42,167.67 204.42,167.88L204.42,198.48C204.42,198.82 204.24,199 203.87,199L200.04,199C199.784,199.042 199.543,198.867 199.501,198.611C199.494,198.564 199.493,198.516 199.5,198.47L199.51,167.78Z" style="fill:rgb(4,7,11);fill-rule:nonzero;"/>
        <path d="M150,125.69C150.018,125.525 149.898,125.378 149.733,125.36C149.712,125.358 149.691,125.358 149.67,125.36L143.93,125.11C143.643,125.128 143.396,124.91 143.378,124.624C143.377,124.596 143.377,124.568 143.38,124.54L143.38,121.34C143.341,121.089 143.514,120.854 143.765,120.815C143.82,120.807 143.875,120.808 143.93,120.82L161.04,121.61C161.32,121.581 161.571,121.784 161.6,122.065C161.603,122.1 161.603,122.135 161.6,122.17L161.6,125.34C161.633,125.592 161.455,125.823 161.204,125.856C161.152,125.863 161.101,125.861 161.05,125.85L155.31,125.6C155.158,125.571 155.012,125.671 154.983,125.823C154.977,125.852 154.977,125.881 154.98,125.91L155.17,157.43C155.17,157.79 154.99,157.96 154.62,157.95L150.77,157.86C150.496,157.89 150.249,157.692 150.219,157.417C150.215,157.378 150.215,157.339 150.22,157.3L150,125.69Z" style="fill:rgb(4,7,11);fill-rule:nonzero;"/>
        <path d="M182.25,123.12C182.25,122.77 182.43,122.6 182.8,122.61L186.66,122.79C186.946,122.767 187.197,122.98 187.22,123.267C187.223,123.294 187.223,123.322 187.22,123.35L187.31,158.23C187.31,158.58 187.12,158.75 186.76,158.74L182.91,158.65C182.642,158.685 182.395,158.497 182.36,158.228C182.354,158.186 182.354,158.143 182.36,158.1L182.31,142.36C182.327,142.195 182.208,142.048 182.043,142.03C182.022,142.028 182.001,142.028 181.98,142.03L171.4,141.67C171.18,141.67 171.07,141.77 171.07,141.97L171.14,157.82C171.178,158.071 171.004,158.305 170.753,158.343C170.702,158.35 170.65,158.349 170.6,158.34L166.75,158.25C166.477,158.285 166.226,158.091 166.191,157.817C166.186,157.778 166.185,157.739 166.19,157.7L166,122.38C166,122.02 166.18,121.85 166.55,121.87L170.42,122.04C170.701,122.016 170.947,122.225 170.971,122.506C170.974,122.537 170.974,122.569 170.97,122.6L171.03,137.28C171.013,137.445 171.132,137.592 171.297,137.61C171.317,137.612 171.339,137.612 171.36,137.61L181.95,138C182.17,138 182.28,137.9 182.28,137.7L182.25,123.12Z" style="fill:rgb(4,7,11);fill-rule:nonzero;"/>
        <path d="M194.61,123.69C194.61,123.34 194.8,123.17 195.16,123.18L209.9,123.86C210.27,123.86 210.45,124.06 210.45,124.41L210.45,127.59C210.45,127.94 210.27,128.1 209.9,128.09L199.8,127.65C199.58,127.65 199.47,127.75 199.47,127.95L199.47,138.33C199.452,138.495 199.572,138.642 199.736,138.66C199.758,138.662 199.779,138.662 199.8,138.66L209.22,139.01C209.59,139.01 209.77,139.2 209.77,139.55L209.77,142.42C209.77,142.77 209.59,142.93 209.22,142.92L199.8,142.59C199.58,142.59 199.47,142.69 199.47,142.9L199.47,154.39C199.47,154.6 199.58,154.7 199.8,154.71L210.58,155C210.91,155 211.07,155.19 211.07,155.54L211.07,158.78C211.07,159.13 210.91,159.3 210.58,159.29L195.19,158.91C194.82,158.91 194.64,158.72 194.64,158.37L194.61,123.69Z" style="fill:rgb(4,7,11);fill-rule:nonzero;"/>
        <rect x="115.29" y="252.92" width="181.64" height="36.85" style="fill:rgb(4,7,11);fill-rule:nonzero;"/>
        <rect x="115.29" y="296.15" width="198.43" height="36.85" style="fill:rgb(4,7,11);fill-rule:nonzero;"/>
        <path d="M128.22,259.921C128.196,259.757 128.31,259.604 128.474,259.58C128.502,259.576 128.531,259.576 128.56,259.58L137.64,259.58C137.81,259.563 137.962,259.686 137.98,259.857C137.982,259.878 137.982,259.899 137.98,259.921L137.98,262C137.997,262.171 137.873,262.323 137.703,262.34C137.682,262.343 137.661,262.343 137.64,262.34L131.41,262.34C131.311,262.328 131.222,262.399 131.21,262.498C131.208,262.511 131.208,262.526 131.21,262.541L131.21,269.27C131.193,269.368 131.258,269.462 131.356,269.478C131.373,269.482 131.392,269.482 131.41,269.48L137.23,269.48C137.394,269.456 137.546,269.57 137.57,269.734C137.574,269.762 137.574,269.792 137.57,269.82L137.57,271.69C137.594,271.854 137.48,272.007 137.316,272.03C137.288,272.034 137.259,272.034 137.23,272.03L131.41,272.03C131.311,272.018 131.222,272.089 131.21,272.187C131.208,272.202 131.208,272.216 131.21,272.23L131.21,279.68C131.198,279.779 131.269,279.868 131.368,279.88C131.382,279.882 131.396,279.882 131.41,279.88L138.08,279.88C138.28,279.88 138.38,279.99 138.38,280.22L138.38,282.36C138.38,282.591 138.28,282.7 138.08,282.7L128.56,282.7C128.396,282.724 128.244,282.61 128.22,282.446C128.216,282.418 128.216,282.388 128.22,282.36L128.22,259.921Z" style="fill:white;fill-rule:nonzero;"/>
        <path d="M150.69,266.35C150.799,265.197 150.533,264.039 149.93,263.051C149.292,262.36 148.366,262.008 147.43,262.1L145.22,262.1C145.04,262.1 144.95,262.18 144.95,262.34L144.95,270.78C144.95,270.91 145.04,270.98 145.22,270.98L147.22,270.98C148.23,271.028 149.195,270.552 149.77,269.72C150.42,268.72 150.742,267.542 150.69,266.35ZM153.82,265.97C153.856,267.237 153.614,268.497 153.11,269.66C152.614,270.689 151.851,271.566 150.9,272.2C150.642,272.349 150.554,272.679 150.703,272.938C150.711,272.952 150.72,272.967 150.73,272.98L155.18,282.36C155.219,282.435 155.219,282.525 155.18,282.6C155.131,282.673 155.046,282.711 154.96,282.7L152.17,282.7C151.978,282.693 151.807,282.576 151.73,282.4L147.73,273.56C147.672,273.426 147.536,273.343 147.39,273.35L145.14,273.35C144.99,273.35 144.91,273.42 144.91,273.56L144.91,282.36C144.934,282.524 144.82,282.676 144.656,282.7C144.628,282.704 144.599,282.704 144.57,282.7L142.19,282.7C142.026,282.723 141.874,282.61 141.85,282.446C141.846,282.418 141.846,282.388 141.85,282.36L141.85,259.921C141.826,259.757 141.94,259.604 142.104,259.58C142.132,259.576 142.162,259.576 142.19,259.58L147.83,259.58C149.936,259.58 151.456,260.113 152.39,261.18C153.431,262.551 153.939,264.253 153.82,265.97Z" style="fill:white;fill-rule:nonzero;"/>
        <path d="M167.56,277.06C167.592,278.034 167.422,279.005 167.06,279.91C166.764,280.617 166.296,281.239 165.7,281.72C165.111,282.179 164.429,282.505 163.7,282.67C162.89,282.856 162.061,282.946 161.23,282.94C160.53,282.94 159.82,282.94 159.11,282.86C158.416,282.803 157.727,282.693 157.05,282.53C156.935,282.479 156.874,282.351 156.91,282.23L157.08,280.12C157.08,279.96 157.16,279.9 157.32,279.95C157.986,280.056 158.577,280.136 159.09,280.19C159.603,280.243 160.203,280.263 160.89,280.25C161.369,280.254 161.848,280.214 162.32,280.13C162.722,280.071 163.101,279.909 163.42,279.66C163.747,279.399 163.996,279.052 164.14,278.66C164.326,278.113 164.411,277.537 164.39,276.96C164.402,276.421 164.342,275.883 164.21,275.36C164.088,274.941 163.892,274.549 163.63,274.2C163.336,273.83 163,273.494 162.63,273.2C162.24,272.87 161.75,272.49 161.19,272.06C160.63,271.63 159.99,271.12 159.5,270.67C159.033,270.229 158.623,269.732 158.28,269.19C157.938,268.629 157.685,268.018 157.53,267.38C157.35,266.607 157.266,265.814 157.28,265.02C157.243,264.04 157.41,263.062 157.77,262.15C158.056,261.47 158.506,260.873 159.08,260.41C159.637,259.988 160.283,259.701 160.97,259.571C161.713,259.416 162.471,259.339 163.23,259.34C163.929,259.339 164.626,259.379 165.32,259.46C165.889,259.516 166.451,259.624 167,259.78C167.12,259.78 167.16,259.921 167.14,260.08L166.93,262.08C166.93,262.24 166.85,262.3 166.7,262.25C166.206,262.134 165.705,262.054 165.2,262.011C164.66,262.011 164.13,261.951 163.64,261.951C163.168,261.942 162.696,261.977 162.23,262.051C161.867,262.106 161.524,262.252 161.23,262.47C160.944,262.714 160.733,263.032 160.62,263.39C160.469,263.892 160.401,264.416 160.42,264.94C160.409,265.482 160.47,266.023 160.6,266.551C160.726,266.988 160.933,267.398 161.21,267.76C161.535,268.16 161.9,268.525 162.3,268.85L163.88,270.11C164.438,270.533 164.973,270.987 165.48,271.47C165.929,271.884 166.312,272.363 166.62,272.89C166.939,273.442 167.175,274.039 167.32,274.66C167.496,275.448 167.576,276.254 167.56,277.06Z" style="fill:white;fill-rule:nonzero;"/>
        <path d="M173.3,262.47C173.311,262.371 173.241,262.283 173.143,262.27C173.129,262.268 173.114,262.268 173.1,262.27L169.56,262.27C169.396,262.294 169.244,262.18 169.22,262.016C169.216,261.988 169.216,261.959 169.22,261.93L169.22,259.93C169.196,259.766 169.31,259.615 169.474,259.59C169.502,259.586 169.531,259.586 169.56,259.59L180.1,259.59C180.264,259.567 180.416,259.679 180.44,259.843C180.444,259.873 180.444,259.901 180.44,259.93L180.44,261.93C180.464,262.094 180.351,262.246 180.186,262.27C180.157,262.274 180.129,262.274 180.1,262.27L176.57,262.27C176.473,262.253 176.379,262.318 176.361,262.416C176.358,262.434 176.357,262.452 176.36,262.47L176.36,282.36C176.384,282.524 176.27,282.676 176.106,282.7C176.078,282.704 176.049,282.704 176.02,282.7L173.64,282.7C173.477,282.723 173.324,282.61 173.3,282.446C173.296,282.418 173.296,282.388 173.3,282.36L173.3,262.47Z" style="fill:white;fill-rule:nonzero;"/>
        <path d="M191.15,282.7L188.7,282.7C188.536,282.723 188.384,282.61 188.36,282.446C188.355,282.418 188.355,282.388 188.36,282.36L188.36,259.921C188.343,259.75 188.467,259.597 188.637,259.58C188.658,259.578 188.679,259.578 188.7,259.58L191.15,259.58C191.33,259.58 191.42,259.701 191.42,259.921L191.42,269.27C191.42,269.43 191.53,269.51 191.73,269.51C191.908,269.512 192.075,269.422 192.17,269.27L197.48,259.921C197.521,259.828 197.583,259.746 197.66,259.68C197.756,259.611 197.872,259.577 197.99,259.58L200.77,259.58C201,259.58 201.08,259.701 201.01,259.921L195.09,269.78C195.003,269.92 194.929,270.066 194.87,270.22C194.839,270.331 194.822,270.445 194.82,270.56C194.821,270.683 194.845,270.805 194.89,270.92L195.09,271.34C195.32,271.75 195.61,272.25 195.96,272.85L197.1,274.85L198.36,277.01C198.79,277.75 199.2,278.45 199.58,279.13C199.96,279.81 200.32,280.44 200.64,281.02C200.96,281.6 201.2,282.07 201.38,282.43C201.431,282.509 201.431,282.611 201.38,282.69C201.307,282.748 201.214,282.776 201.12,282.77L198.3,282.77C198.178,282.784 198.056,282.748 197.96,282.67C197.9,282.606 197.844,282.54 197.79,282.47C197.52,281.97 197.16,281.3 196.72,280.47C196.28,279.64 195.8,278.74 195.28,277.8C194.76,276.86 194.23,275.92 193.69,274.98C193.15,274.04 192.69,273.21 192.25,272.48C192.193,272.356 192.119,272.242 192.03,272.14C191.944,272.084 191.842,272.059 191.74,272.07C191.65,272.061 191.56,272.078 191.48,272.12C191.443,272.176 191.426,272.243 191.43,272.31L191.43,282.44C191.42,282.59 191.33,282.7 191.15,282.7Z" style="fill:white;fill-rule:nonzero;"/>
        <path d="M203.9,259.921C203.876,259.757 203.99,259.604 204.154,259.58C204.183,259.576 204.212,259.576 204.24,259.58L206.62,259.58C206.784,259.556 206.936,259.671 206.96,259.834C206.964,259.862 206.964,259.891 206.96,259.921L206.96,279.68C206.947,279.779 207.018,279.869 207.116,279.882C207.134,279.884 207.152,279.884 207.17,279.88L212.47,279.88C212.634,279.856 212.786,279.969 212.81,280.134C212.814,280.163 212.814,280.191 212.81,280.22L212.81,282.36C212.834,282.524 212.721,282.676 212.557,282.7C212.527,282.704 212.499,282.704 212.47,282.7L204.24,282.7C204.076,282.723 203.924,282.61 203.9,282.446C203.895,282.418 203.895,282.388 203.9,282.36L203.9,259.921Z" style="fill:white;fill-rule:nonzero;"/>
        <path d="M223.18,256.78C223.016,256.804 222.864,256.69 222.84,256.526C222.836,256.498 222.836,256.468 222.84,256.44L222.84,254.06C222.816,253.896 222.93,253.744 223.094,253.72C223.122,253.716 223.151,253.716 223.18,253.72L225.29,253.72C225.46,253.703 225.612,253.827 225.63,253.997C225.632,254.018 225.632,254.039 225.63,254.06L225.63,256.44C225.654,256.604 225.54,256.757 225.376,256.78C225.348,256.784 225.318,256.784 225.29,256.78L223.18,256.78ZM223.79,273.89C223.904,273.908 224.012,273.83 224.03,273.716C224.033,273.693 224.033,273.672 224.03,273.65C223.94,273.17 223.8,272.46 223.62,271.52C223.44,270.58 223.24,269.57 223.01,268.52C222.78,267.47 222.56,266.36 222.35,265.29C222.14,264.22 221.94,263.29 221.79,262.571C221.752,262.498 221.705,262.43 221.65,262.37C221.559,262.309 221.448,262.285 221.34,262.3C221.05,262.3 220.9,262.39 220.9,262.571C220.72,263.303 220.51,264.193 220.27,265.24C220.03,266.29 219.8,267.36 219.56,268.45L218.89,271.509C218.69,272.46 218.54,273.19 218.45,273.69C218.432,273.804 218.511,273.912 218.625,273.93C218.646,273.933 218.669,273.933 218.69,273.93L223.79,273.89ZM217.54,256.78C217.37,256.804 217.214,256.684 217.191,256.514C217.187,256.49 217.187,256.465 217.19,256.44L217.19,254.06C217.172,253.889 217.295,253.737 217.466,253.718C217.49,253.717 217.516,253.717 217.54,253.72L219.64,253.72C219.804,253.696 219.956,253.81 219.98,253.973C219.984,254.003 219.984,254.031 219.98,254.06L219.98,256.44C220.004,256.604 219.891,256.757 219.727,256.78C219.697,256.784 219.669,256.784 219.64,256.78L217.54,256.78ZM224.47,276.72C224.471,276.588 224.364,276.479 224.232,276.478C224.222,276.478 224.211,276.478 224.2,276.48L218.25,276.48C218.07,276.48 217.96,276.56 217.94,276.72C217.92,276.88 217.78,277.41 217.67,277.92C217.56,278.43 217.44,278.97 217.33,279.52C217.22,280.07 217.11,280.62 217.01,281.14C216.91,281.66 216.82,282.07 216.75,282.36C216.72,282.561 216.543,282.708 216.34,282.7L213.83,282.7C213.6,282.7 213.51,282.59 213.56,282.36C213.69,281.68 213.9,280.76 214.17,279.61C214.44,278.46 214.74,277.18 215.05,275.78C215.36,274.38 215.71,272.93 216.05,271.4C216.39,269.87 216.77,268.4 217.11,266.94C217.45,265.48 217.76,264.17 218.11,262.94C218.46,261.71 218.65,260.71 218.86,259.94C218.9,259.732 219.089,259.587 219.3,259.6L223.58,259.6C223.786,259.584 223.969,259.735 223.99,259.94C224.2,260.78 224.44,261.85 224.74,263.14C225.04,264.43 225.35,265.82 225.69,267.32C226.03,268.82 226.38,270.32 226.69,271.91C227,273.5 227.37,274.91 227.69,276.33C228.01,277.75 228.27,278.94 228.51,280.02C228.75,281.1 228.91,281.88 229,282.38C229.07,282.61 229,282.72 228.76,282.72L226,282.72C225.917,282.729 225.833,282.712 225.76,282.67C225.691,282.587 225.646,282.487 225.63,282.38C225.63,282.09 225.51,281.68 225.41,281.16C225.31,280.64 225.19,280.1 225.07,279.54C224.95,278.98 224.83,278.46 224.73,277.94C224.63,277.42 224.54,277.01 224.47,276.72Z" style="fill:white;fill-rule:nonzero;"/>
        <path d="M240.21,266.35C240.319,265.197 240.053,264.039 239.45,263.051C238.811,262.36 237.887,262.008 236.95,262.1L234.74,262.1C234.56,262.1 234.47,262.18 234.47,262.34L234.47,270.78C234.47,270.91 234.56,270.98 234.74,270.98L236.74,270.98C237.751,271.028 238.715,270.552 239.29,269.72C239.94,268.72 240.263,267.542 240.21,266.35ZM243.34,265.97C243.376,267.237 243.134,268.497 242.63,269.66C242.134,270.689 241.37,271.566 240.42,272.2C240.162,272.349 240.073,272.679 240.223,272.938C240.231,272.952 240.24,272.967 240.25,272.98L244.7,282.36C244.739,282.435 244.739,282.525 244.7,282.6C244.651,282.673 244.566,282.711 244.48,282.7L241.69,282.7C241.498,282.693 241.327,282.576 241.25,282.4L237.25,273.56C237.191,273.426 237.056,273.343 236.91,273.35L234.67,273.35C234.51,273.35 234.43,273.42 234.43,273.56L234.43,282.36C234.454,282.524 234.34,282.676 234.176,282.7C234.147,282.704 234.118,282.704 234.09,282.7L231.71,282.7C231.546,282.723 231.393,282.61 231.37,282.446C231.366,282.418 231.366,282.388 231.37,282.36L231.37,259.921C231.347,259.757 231.46,259.604 231.624,259.58C231.652,259.576 231.682,259.576 231.71,259.58L237.35,259.58C239.463,259.58 240.983,260.113 241.91,261.18C242.951,262.551 243.459,264.253 243.34,265.97Z" style="fill:white;fill-rule:nonzero;"/>
        <path d="M247.79,259.921C247.772,259.75 247.896,259.597 248.066,259.58C248.088,259.578 248.109,259.578 248.13,259.58L257.209,259.58C257.374,259.556 257.526,259.671 257.549,259.834C257.553,259.862 257.553,259.891 257.549,259.921L257.549,262C257.574,262.164 257.459,262.317 257.295,262.34C257.268,262.344 257.238,262.344 257.209,262.34L251,262.34C250.86,262.34 250.8,262.4 250.8,262.541L250.8,269.27C250.8,269.41 250.86,269.48 251,269.48L256.81,269.48C256.974,269.456 257.126,269.57 257.15,269.734C257.153,269.762 257.153,269.792 257.15,269.82L257.15,271.69C257.174,271.854 257.06,272.007 256.896,272.03C256.867,272.034 256.838,272.034 256.81,272.03L251,272.03C250.86,272.03 250.8,272.09 250.8,272.23L250.8,279.68C250.788,279.779 250.858,279.868 250.958,279.88C250.972,279.882 250.986,279.882 251,279.88L257.66,279.88C257.87,279.88 257.97,279.99 257.97,280.22L257.97,282.36C257.97,282.591 257.87,282.7 257.66,282.7L248.14,282.7C247.977,282.724 247.824,282.61 247.8,282.446C247.796,282.418 247.796,282.388 247.8,282.36L247.79,259.921Z" style="fill:white;fill-rule:nonzero;"/>
        <path d="M271.15,282.7C270.93,282.7 270.77,282.551 270.68,282.26L264.76,264.26C264.735,264.164 264.695,264.073 264.64,263.99C264.64,263.94 264.53,263.92 264.42,263.92C264.31,263.92 264.16,264.03 264.18,264.26L264.28,282.31C264.304,282.474 264.19,282.627 264.026,282.65C263.998,282.654 263.969,282.654 263.94,282.65L261.799,282.65C261.635,282.674 261.483,282.56 261.459,282.396C261.456,282.368 261.456,282.339 261.459,282.31L261.459,259.921C261.441,259.75 261.566,259.597 261.736,259.58C261.758,259.578 261.778,259.578 261.799,259.58L265.71,259.58C265.89,259.58 266.04,259.72 266.15,259.99L271.7,277.4C271.727,277.535 271.786,277.661 271.87,277.77C271.922,277.823 271.996,277.849 272.07,277.84C272.21,277.84 272.27,277.76 272.27,277.6L272.14,259.921C272.116,259.757 272.229,259.604 272.393,259.58C272.423,259.576 272.451,259.576 272.48,259.58L274.65,259.58C274.814,259.556 274.966,259.671 274.99,259.834C274.994,259.862 274.994,259.891 274.99,259.921L274.99,282.36C275.014,282.524 274.9,282.676 274.736,282.7C274.708,282.704 274.679,282.704 274.65,282.7L271.15,282.7Z" style="fill:white;fill-rule:nonzero;"/>
        <path d="M279.69,282.7C279.526,282.723 279.374,282.61 279.35,282.446C279.346,282.418 279.346,282.388 279.35,282.36L279.35,279.27C279.326,279.106 279.439,278.954 279.603,278.93C279.633,278.926 279.661,278.926 279.69,278.93L282.41,278.93C282.574,278.906 282.727,279.02 282.75,279.184C282.754,279.213 282.754,279.242 282.75,279.27L282.75,282.36C282.773,282.524 282.66,282.676 282.496,282.7C282.468,282.704 282.438,282.704 282.41,282.7L279.69,282.7Z" style="fill:white;fill-rule:nonzero;"/>
        <path d="M138.69,313.97C138.701,312.697 138.638,311.426 138.5,310.16C138.417,309.222 138.185,308.303 137.81,307.44C137.519,306.757 137.028,306.177 136.4,305.78C135.696,305.396 134.901,305.21 134.1,305.24L131.45,305.24C131.352,305.222 131.259,305.288 131.241,305.385C131.238,305.404 131.238,305.422 131.24,305.44L131.24,322.78C131.24,322.91 131.3,322.98 131.41,322.98L134.13,322.98C134.908,323.011 135.678,322.809 136.34,322.4C136.964,321.978 137.456,321.389 137.76,320.7C138.147,319.81 138.394,318.866 138.49,317.9C138.631,316.594 138.698,315.283 138.69,313.97ZM134.51,302.58C135.79,302.529 137.06,302.83 138.18,303.45C139.132,304.03 139.907,304.86 140.42,305.85C141.007,306.981 141.393,308.207 141.56,309.47C141.789,310.972 141.899,312.49 141.89,314.01C141.893,315.547 141.78,317.081 141.55,318.6C141.359,319.896 140.957,321.153 140.36,322.32C139.828,323.331 139.042,324.185 138.08,324.8C136.987,325.437 135.734,325.749 134.47,325.7L128.56,325.7C128.396,325.723 128.244,325.61 128.22,325.446C128.216,325.418 128.216,325.388 128.22,325.36L128.22,302.92C128.196,302.756 128.31,302.604 128.474,302.58C128.502,302.576 128.531,302.576 128.56,302.58L134.51,302.58Z" style="fill:white;fill-rule:nonzero;"/>
        <path d="M153.79,316.9C153.905,316.913 154.009,316.829 154.021,316.714C154.023,316.696 154.023,316.677 154.02,316.66C153.93,316.18 153.8,315.47 153.62,314.53C153.44,313.59 153.23,312.58 153,311.53C152.77,310.48 152.56,309.37 152.34,308.3C152.12,307.23 151.94,306.3 151.78,305.58C151.746,305.506 151.698,305.438 151.64,305.38C151.64,305.33 151.5,305.31 151.34,305.31C151.18,305.31 150.9,305.4 150.9,305.58C150.713,306.313 150.503,307.203 150.27,308.25C150.037,309.297 149.797,310.367 149.55,311.46C149.31,312.553 149.09,313.573 148.89,314.52C148.69,315.47 148.54,316.2 148.45,316.7C148.432,316.814 148.51,316.922 148.625,316.94C148.646,316.943 148.668,316.943 148.69,316.94L153.79,316.9ZM154.47,319.72C154.459,319.577 154.335,319.469 154.191,319.48L154.19,319.48L148.24,319.48C148.098,319.458 147.965,319.554 147.943,319.696C147.941,319.704 147.94,319.712 147.94,319.72C147.873,320.013 147.783,320.414 147.67,320.92C147.55,321.44 147.44,321.97 147.33,322.52C147.22,323.07 147.1,323.62 147,324.14C146.9,324.66 146.82,325.07 146.75,325.36C146.716,325.558 146.541,325.703 146.34,325.7L143.82,325.7C143.6,325.7 143.51,325.59 143.55,325.36C143.69,324.68 143.89,323.76 144.16,322.61C144.43,321.46 144.73,320.18 145.05,318.78C145.37,317.38 145.71,315.93 146.05,314.4L147.1,309.94C147.44,308.5 147.76,307.17 148.05,305.94C148.34,304.71 148.6,303.71 148.8,302.94C148.848,302.737 149.031,302.594 149.24,302.6L153.53,302.6C153.735,302.588 153.914,302.736 153.94,302.94C154.14,303.78 154.39,304.85 154.68,306.14C154.97,307.43 155.3,308.82 155.68,310.32C156.06,311.82 156.36,313.32 156.68,314.91L157.68,319.33C157.98,320.71 158.26,321.94 158.5,323.02C158.74,324.1 158.9,324.88 158.99,325.38C159.06,325.61 158.99,325.72 158.75,325.72L156,325.72C155.88,325.72 155.8,325.72 155.76,325.67C155.72,325.62 155.67,325.54 155.62,325.38C155.57,325.22 155.5,324.68 155.4,324.16C155.3,323.64 155.19,323.1 155.06,322.54C154.93,321.98 154.82,321.46 154.72,320.94C154.62,320.42 154.53,320.01 154.47,319.72Z" style="fill:white;fill-rule:nonzero;"/>
        <path d="M171.09,325.7C170.87,325.7 170.71,325.551 170.62,325.26L164.7,307.26C164.676,307.164 164.635,307.073 164.58,306.99C164.58,306.94 164.47,306.92 164.36,306.92C164.25,306.92 164.1,307.03 164.12,307.26L164.22,325.31C164.244,325.474 164.13,325.627 163.966,325.65C163.937,325.654 163.908,325.654 163.88,325.65L161.74,325.65C161.576,325.674 161.424,325.56 161.4,325.396C161.395,325.368 161.395,325.339 161.4,325.31L161.4,302.92C161.383,302.75 161.507,302.597 161.677,302.58C161.698,302.578 161.719,302.578 161.74,302.58L165.65,302.58C165.83,302.58 165.98,302.72 166.09,302.99L171.64,320.4C171.668,320.535 171.726,320.661 171.81,320.77C171.862,320.823 171.936,320.849 172.01,320.84C172.15,320.84 172.21,320.76 172.21,320.6L172.08,302.92C172.057,302.757 172.17,302.604 172.334,302.58C172.362,302.576 172.392,302.576 172.42,302.58L174.59,302.58C174.754,302.556 174.906,302.67 174.93,302.834C174.935,302.862 174.935,302.891 174.93,302.92L174.93,325.36C174.954,325.524 174.84,325.676 174.677,325.7C174.647,325.704 174.618,325.704 174.59,325.7L171.09,325.7Z" style="fill:white;fill-rule:nonzero;"/>
        <path d="M189.18,325.7C188.95,325.7 188.79,325.551 188.7,325.26L182.79,307.26C182.761,307.166 182.721,307.075 182.67,306.99C182.611,306.933 182.53,306.908 182.45,306.92C182.27,306.92 182.19,307.03 182.21,307.26L182.31,325.31C182.334,325.474 182.221,325.627 182.057,325.65C182.027,325.654 181.999,325.654 181.97,325.65L179.83,325.65C179.666,325.674 179.514,325.56 179.49,325.396C179.486,325.368 179.486,325.339 179.49,325.31L179.49,302.92C179.466,302.756 179.58,302.604 179.744,302.58C179.772,302.576 179.802,302.576 179.83,302.58L183.74,302.58C183.92,302.58 184.07,302.72 184.18,302.99L189.72,320.4C189.757,320.532 189.814,320.657 189.89,320.77C189.947,320.821 190.023,320.846 190.1,320.84C190.23,320.84 190.3,320.76 190.3,320.6L190.17,302.92C190.146,302.757 190.26,302.604 190.424,302.58C190.452,302.576 190.481,302.576 190.51,302.58L192.68,302.58C192.844,302.556 192.996,302.67 193.02,302.834C193.024,302.862 193.024,302.891 193.02,302.92L193.02,325.36C193.044,325.524 192.931,325.676 192.767,325.7C192.737,325.704 192.709,325.704 192.68,325.7L189.18,325.7Z" style="fill:white;fill-rule:nonzero;"/>
        <path d="M212.4,320.06C212.435,321.034 212.268,322.004 211.91,322.91C211.613,323.617 211.146,324.239 210.55,324.72C209.959,325.176 209.277,325.501 208.55,325.67C207.743,325.855 206.918,325.946 206.09,325.94C205.39,325.94 204.68,325.94 203.96,325.86C203.286,325.801 202.617,325.691 201.96,325.53C201.84,325.53 201.8,325.38 201.82,325.23L201.99,323.12C201.99,322.96 202.07,322.9 202.23,322.95C202.863,323.056 203.453,323.136 204,323.19C204.547,323.243 205.146,323.263 205.8,323.25C206.279,323.254 206.758,323.214 207.23,323.13C207.631,323.07 208.01,322.908 208.33,322.66C208.654,322.398 208.899,322.052 209.04,321.66C209.235,321.115 209.323,320.538 209.3,319.96C209.314,319.421 209.25,318.882 209.11,318.36C208.997,317.938 208.8,317.544 208.53,317.2C208.233,316.832 207.898,316.496 207.53,316.2C207.13,315.87 206.65,315.49 206.08,315.06C205.51,314.63 204.89,314.12 204.4,313.67C203.928,313.235 203.517,312.737 203.18,312.19C202.839,311.629 202.586,311.018 202.43,310.38C202.246,309.607 202.158,308.814 202.17,308.02C202.136,307.039 202.306,306.061 202.67,305.15C202.952,304.468 203.403,303.87 203.98,303.41C204.534,302.989 205.177,302.702 205.86,302.57C206.603,302.416 207.36,302.339 208.12,302.34C208.818,302.338 209.517,302.379 210.21,302.46C210.782,302.521 211.348,302.632 211.9,302.79C212.01,302.79 212.06,302.93 212.03,303.09L211.83,305.09C211.83,305.25 211.75,305.31 211.59,305.26C211.1,305.143 210.602,305.063 210.1,305.02C209.55,305.02 209.03,304.96 208.53,304.96C208.058,304.953 207.586,304.987 207.12,305.06C206.757,305.115 206.413,305.259 206.12,305.48C205.831,305.72 205.619,306.041 205.51,306.4C205.354,306.901 205.284,307.426 205.3,307.95C205.287,308.493 205.352,309.035 205.49,309.56C205.611,310 205.819,310.411 206.1,310.77C206.422,311.173 206.788,311.538 207.19,311.86L208.77,313.12C209.38,313.59 209.91,314.05 210.37,314.48C210.812,314.899 211.196,315.377 211.51,315.9C211.821,316.455 212.054,317.051 212.2,317.67C212.361,318.456 212.429,319.259 212.4,320.06Z" style="fill:white;fill-rule:nonzero;"/>
        <path d="M225.59,302.92C225.572,302.75 225.696,302.597 225.867,302.58C225.888,302.578 225.909,302.578 225.93,302.58L228.31,302.58C228.474,302.556 228.626,302.67 228.65,302.834C228.654,302.862 228.654,302.891 228.65,302.92L228.65,325.36C228.674,325.524 228.56,325.676 228.396,325.7C228.368,325.704 228.339,325.704 228.31,325.7L225.93,325.7C225.766,325.723 225.614,325.61 225.59,325.446C225.586,325.418 225.586,325.388 225.59,325.36L225.59,315.26C225.602,315.161 225.531,315.072 225.433,315.06C225.418,315.058 225.404,315.058 225.39,315.06L218.86,315.06C218.762,315.049 218.672,315.119 218.66,315.218C218.658,315.231 218.658,315.246 218.66,315.26L218.66,325.36C218.684,325.524 218.57,325.676 218.406,325.7C218.378,325.704 218.349,325.704 218.32,325.7L215.94,325.7C215.776,325.723 215.624,325.61 215.6,325.446C215.596,325.418 215.596,325.388 215.6,325.36L215.6,302.92C215.576,302.756 215.689,302.604 215.853,302.58C215.883,302.576 215.911,302.576 215.94,302.58L218.32,302.58C218.49,302.562 218.643,302.686 218.66,302.857C218.662,302.878 218.662,302.899 218.66,302.92L218.66,312.27C218.643,312.368 218.708,312.462 218.806,312.478C218.824,312.482 218.842,312.482 218.86,312.48L225.39,312.48C225.53,312.48 225.59,312.41 225.59,312.27L225.59,302.92Z" style="fill:white;fill-rule:nonzero;"/>
        <path d="M241.33,316.9C241.445,316.913 241.549,316.829 241.561,316.714C241.563,316.696 241.562,316.677 241.56,316.66C241.47,316.18 241.34,315.47 241.16,314.53C240.98,313.59 240.77,312.58 240.54,311.53C240.31,310.48 240.09,309.37 239.88,308.3C239.67,307.23 239.48,306.3 239.32,305.58C239.286,305.506 239.238,305.438 239.18,305.38C239.18,305.33 239.03,305.31 238.88,305.31C238.73,305.31 238.43,305.4 238.43,305.58C238.25,306.31 238.04,307.2 237.81,308.25C237.58,309.3 237.33,310.37 237.09,311.46C236.85,312.55 236.63,313.57 236.43,314.52C236.23,315.47 236.08,316.2 235.99,316.7C235.973,316.814 236.052,316.922 236.167,316.939C236.185,316.941 236.202,316.942 236.22,316.94L241.33,316.9ZM242,319.72C242.001,319.588 241.894,319.479 241.762,319.478C241.751,319.478 241.74,319.478 241.73,319.48L235.73,319.48C235.588,319.458 235.455,319.554 235.433,319.696C235.432,319.704 235.431,319.712 235.43,319.72C235.36,320.01 235.27,320.41 235.15,320.92C235.03,321.43 234.93,321.97 234.82,322.52C234.71,323.07 234.59,323.62 234.49,324.14C234.39,324.66 234.3,325.07 234.24,325.36C234.206,325.558 234.031,325.703 233.83,325.7L231.31,325.7C231.09,325.7 230.99,325.59 231.04,325.36C231.18,324.68 231.38,323.76 231.65,322.61C231.92,321.46 232.22,320.18 232.54,318.78C232.86,317.38 233.19,315.93 233.54,314.4L234.54,309.94C234.88,308.5 235.2,307.17 235.54,305.94C235.88,304.71 236.09,303.71 236.29,302.94C236.338,302.737 236.521,302.594 236.73,302.6L241.02,302.6C241.223,302.589 241.399,302.738 241.42,302.94C241.63,303.78 241.88,304.85 242.17,306.14C242.46,307.43 242.78,308.82 243.17,310.32C243.56,311.82 243.85,313.32 244.17,314.91L245.17,319.33C245.47,320.71 245.75,321.94 245.98,323.02C246.21,324.1 246.39,324.88 246.48,325.38C246.54,325.61 246.48,325.72 246.24,325.72L243.48,325.72C243.399,325.731 243.318,325.714 243.25,325.67C243.2,325.67 243.16,325.54 243.11,325.38C243.06,325.22 242.99,324.68 242.89,324.16C242.79,323.64 242.67,323.1 242.55,322.54C242.43,321.98 242.31,321.46 242.21,320.94C242.11,320.42 242.08,320.01 242,319.72Z" style="fill:white;fill-rule:nonzero;"/>
        <path d="M257.76,309.35C257.867,308.196 257.596,307.038 256.989,306.051C256.351,305.359 255.426,305.008 254.49,305.1L252.28,305.1C252.1,305.1 252.01,305.18 252.01,305.34L252.01,313.78C252.01,313.91 252.1,313.98 252.28,313.98L254.28,313.98C255.291,314.028 256.255,313.552 256.829,312.72C257.484,311.721 257.81,310.543 257.76,309.35ZM260.88,308.97C260.92,310.238 260.678,311.498 260.17,312.66C259.68,313.693 258.915,314.572 257.959,315.2C257.7,315.357 257.617,315.695 257.773,315.956C257.778,315.964 257.784,315.972 257.79,315.98L262.25,325.36C262.289,325.435 262.289,325.525 262.25,325.6C262.25,325.67 262.14,325.7 262.03,325.7L259.239,325.7C259.048,325.693 258.877,325.576 258.799,325.4L254.8,316.56C254.742,316.426 254.606,316.343 254.46,316.35L252.22,316.35C252.06,316.35 251.98,316.42 251.98,316.56L251.98,325.36C252.004,325.524 251.891,325.676 251.727,325.7C251.697,325.704 251.669,325.704 251.64,325.7L249.26,325.7C249.096,325.723 248.943,325.61 248.92,325.446C248.916,325.418 248.916,325.388 248.92,325.36L248.92,302.92C248.896,302.756 249.01,302.604 249.174,302.58C249.202,302.576 249.231,302.576 249.26,302.58L254.9,302.58C257.014,302.58 258.532,303.113 259.459,304.18C260.497,305.552 261.002,307.255 260.88,308.97Z" style="fill:white;fill-rule:nonzero;"/>
        <path d="M265.34,302.92C265.316,302.756 265.43,302.604 265.594,302.58C265.622,302.576 265.651,302.576 265.68,302.58L274.76,302.58C274.931,302.562 275.083,302.686 275.1,302.857C275.102,302.878 275.102,302.899 275.1,302.92L275.1,305C275.117,305.171 274.993,305.323 274.823,305.34C274.802,305.343 274.781,305.343 274.76,305.34L268.53,305.34C268.432,305.328 268.342,305.399 268.33,305.498C268.328,305.511 268.328,305.526 268.33,305.54L268.33,312.27C268.312,312.368 268.378,312.462 268.476,312.478C268.494,312.482 268.512,312.482 268.53,312.48L274.35,312.48C274.514,312.456 274.666,312.57 274.69,312.734C274.694,312.762 274.694,312.792 274.69,312.82L274.69,314.69C274.714,314.854 274.601,315.007 274.436,315.03C274.407,315.034 274.379,315.034 274.35,315.03L268.53,315.03C268.432,315.018 268.342,315.089 268.33,315.187C268.328,315.202 268.328,315.216 268.33,315.23L268.33,322.68C268.318,322.779 268.389,322.868 268.487,322.88C268.502,322.882 268.516,322.882 268.53,322.88L275.2,322.88C275.4,322.88 275.5,322.99 275.5,323.22L275.5,325.36C275.5,325.591 275.4,325.7 275.2,325.7L265.68,325.7C265.516,325.724 265.364,325.61 265.34,325.446C265.336,325.418 265.336,325.388 265.34,325.36L265.34,302.92Z" style="fill:white;fill-rule:nonzero;"/>
        <path d="M288.7,325.7C288.47,325.7 288.31,325.551 288.22,325.26L282.3,307.26C282.277,307.165 282.24,307.074 282.19,306.99C282.19,306.94 282.08,306.92 281.96,306.92C281.84,306.92 281.7,307.03 281.73,307.26L281.83,325.31C281.853,325.474 281.74,325.627 281.576,325.65C281.548,325.654 281.518,325.654 281.49,325.65L279.35,325.65C279.186,325.674 279.034,325.56 279.01,325.396C279.006,325.368 279.006,325.339 279.01,325.31L279.01,302.92C278.986,302.756 279.1,302.604 279.264,302.58C279.292,302.576 279.321,302.576 279.35,302.58L283.26,302.58C283.44,302.58 283.59,302.72 283.7,302.99L289.24,320.4C289.276,320.532 289.334,320.657 289.41,320.77C289.464,320.821 289.536,320.846 289.61,320.84C289.75,320.84 289.82,320.76 289.82,320.6L289.68,302.92C289.662,302.75 289.786,302.597 289.957,302.58C289.977,302.578 289.999,302.578 290.02,302.58L292.2,302.58C292.37,302.562 292.522,302.686 292.54,302.857C292.542,302.878 292.542,302.899 292.54,302.92L292.54,325.36C292.563,325.524 292.45,325.676 292.286,325.7C292.258,325.704 292.228,325.704 292.2,325.7L288.7,325.7Z" style="fill:white;fill-rule:nonzero;"/>
        <path d="M297.23,325.7C297.066,325.723 296.914,325.61 296.89,325.446C296.886,325.418 296.886,325.388 296.89,325.36L296.89,322.27C296.866,322.106 296.979,321.954 297.143,321.93C297.173,321.926 297.201,321.926 297.23,321.93L300,321.93C300.164,321.906 300.316,322.02 300.34,322.184C300.344,322.213 300.344,322.242 300.34,322.27L300.34,325.36C300.364,325.524 300.25,325.676 300.086,325.7C300.058,325.704 300.028,325.704 300,325.7L297.23,325.7Z" style="fill:white;fill-rule:nonzero;"/>
    </g>
</svg>
